<svg width="180" height="129" viewBox="0 0 180 129" fill="none" xmlns="http://www.w3.org/2000/svg">
<path fill-rule="evenodd" clip-rule="evenodd" d="M24.3023 0C53.0679 4.54767 82.813 8.11953 113.538 10.7156L119.696 11.2218C152.286 11.2218 180 29.7818 180 57.1103C180 83.6269 152.786 100.557 120.721 101.322L119.696 101.341C118.84 101.949 117.988 102.547 117.141 103.135L114.61 104.868L112.103 106.541C107.529 109.553 103.078 112.26 98.7478 114.662L96.3981 115.942C90.9436 118.858 85.6864 121.281 80.6264 123.21L78.47 124.006C56.6687 131.797 38.6126 130.216 24.3018 119.264L23.5145 117.975L22.7147 116.603L22.0366 115.403L21.363 114.179L20.2274 112.048L19.3966 110.436C19.2536 110.155 19.1085 109.867 18.9615 109.573L18.3845 108.41L17.6199 106.834L16.8294 105.161L16.0167 103.394C15.8796 103.091 15.7417 102.785 15.6031 102.475L14.3394 99.5824L13.4822 97.5426C13.3386 97.1953 13.1947 96.8445 13.0506 96.49L12.1836 94.3207C11.7494 93.2149 11.3144 92.0775 10.8808 90.9098L10.0161 88.5342L9.15878 86.0794C8.44842 84.0013 7.74959 81.8428 7.07191 79.609L6.26947 76.8925C3.50076 67.2604 1.17313 56.3343 0 44.4877C5.71829 28.3 13.819 13.4708 24.3023 0ZM117.428 18.4091L117.376 18.7424C113.609 43.9254 113.602 68.3594 117.354 92.0445L117.036 92.0455C146.435 92.0455 171.818 77.7976 171.818 56.0203C171.818 34.1602 145.918 18.8639 117.428 18.4091Z" fill="black"/>
</svg>
