<svg width="282" height="353" viewBox="0 0 282 353" fill="none" xmlns="http://www.w3.org/2000/svg">
<path d="M256.837 1.79921C254.302 -0.0125372 251.404 -0.373879 248.506 0.348803L31.1579 72.7981C27.5344 73.8847 25 77.5081 25 81.4927V244.504C25 248.489 27.537 251.748 31.1579 253.198L248.506 325.648C254.302 327.459 260.46 323.111 260.46 316.953V9.04337C260.46 6.14507 259.012 3.24684 256.837 1.79908C254.302 -0.0126667 259.012 3.24697 256.837 1.79908L256.837 1.79921ZM120.27 263.704L43.1114 237.983V172.054H120.27V263.704ZM120.27 153.943H43.1114V88.0139L120.27 62.2931V153.943ZM242.347 304.275L138.02 269.498V172.054H242.347V304.275ZM242.347 153.943H138.382V56.4985L242.347 21.7241V153.943Z" fill="black"/>
<path d="M12.5 238.627C12.5 233.158 17.8638 229.302 23.0475 231.043L266.592 312.855C268.628 313.539 270 315.447 270 317.595L270 341.417C270 347.013 264.401 350.88 259.167 348.898L17.0213 257.212C14.3 256.182 12.5 253.575 12.5 250.665L12.5 238.627Z" fill="black"/>
</svg>
