<svg width="160" height="200" viewBox="0 0 160 200" fill="none" xmlns="http://www.w3.org/2000/svg">
<path fill-rule="evenodd" clip-rule="evenodd" d="M136.667 180H143.333V33.3333H136.667V180ZM16.6667 180H23.3333V33.3333H16.6667V180ZM30 180H36.6667V33.3333H30V180ZM43.3333 180H50V33.3333H43.3333V180ZM56.6667 180H63.3333V33.3333H56.6667V180ZM70 180H76.6667V33.3333H70V180ZM83.3333 180H90V33.3333H83.3333V180ZM96.6667 180H103.333V33.3333H96.6667V180ZM110 180H116.667V33.3333H110V180ZM123.333 180H130V33.3333H123.333V180ZM23.3333 6.66667H136.667C141.013 6.66667 144.72 9.45333 146.097 13.3333H13.9033C15.28 9.45333 18.9867 6.66667 23.3333 6.66667ZM156.667 33.3333C158.507 33.3333 160 31.84 160 30V16.6667C160 14.8267 158.507 13.3333 156.667 13.3333H152.997C151.447 5.73667 144.717 0 136.667 0H23.3333C15.2833 0 8.55333 5.73667 7.00333 13.3333H3.33333C1.49333 13.3333 0 14.8267 0 16.6667V30C0 31.84 1.49333 33.3333 3.33333 33.3333H10V180H3.33333C1.49333 180 0 181.493 0 183.333V196.667C0 198.507 1.49333 200 3.33333 200H156.667C158.507 200 160 198.507 160 196.667V183.333C160 181.493 158.507 180 156.667 180H150V33.3333H156.667Z" fill="black"/>
</svg>
