<svg width="110" height="66" viewBox="0 0 110 66" fill="none" xmlns="http://www.w3.org/2000/svg">
<path d="M106.55 10.3543C105.507 9.83451 104.325 9.57493 103.128 9.60273C101.932 9.63052 100.767 9.945 99.757 10.5116L94.3307 13.5073C88.892 11.7648 83.4153 9.82313 78.0381 7.72619C73.6048 5.99728 70.3706 4.60663 67.7717 3.48894C62.0547 1.03077 59.4442 -0.0935193 54.9564 0.0060705C50.5738 0.100955 48.0285 1.30598 43.8108 3.30052C41.3256 4.47571 38.2327 5.93826 33.6764 7.72689C27.8449 10.0143 21.847 11.9553 15.7234 13.5371L10.2419 10.5116C9.23216 9.945 8.06668 9.63052 6.87045 9.60273C5.67425 9.57494 4.49192 9.83451 3.44909 10.3543C2.39789 10.8599 1.52242 11.6075 0.914796 12.5184C0.30717 13.4294 -0.0090167 14.4689 0.000195706 15.5262V33.4056C-0.0074771 35.4463 1.18412 37.3439 3.14695 38.4194L13.75 44.2737V45.8386C13.7447 48.088 14.8734 50.2223 16.83 51.6623C35.1053 65.1304 54.8032 65.2862 54.9996 65.2862C72.3242 65.2862 85.428 57.8406 93.3695 51.5952C95.2011 50.1536 96.2484 48.0906 96.2499 45.9245V44.874L106.853 39.0204V39.0197C108.816 37.9441 110.007 36.0464 110 34.0059V15.5262C110.009 14.4689 109.693 13.4293 109.085 12.5184C108.478 11.6075 107.602 10.86 106.551 10.3543L106.55 10.3543ZM26.3685 38.0504C35.5422 41.0074 45.2331 42.518 54.9977 42.5133C64.763 42.5181 74.4539 41.0074 83.6268 38.0504L84.8039 40.9029C75.2526 43.9819 65.1636 45.5543 54.9961 45.5495C44.8295 45.5542 34.7406 43.9818 25.1884 40.9036L26.3685 38.0504ZM25.1915 27.2397L26.3685 24.3871C35.5422 27.3441 45.2331 28.8548 54.9977 28.8501C64.763 28.8549 74.4539 27.3442 83.6268 24.3871L84.8039 27.2397C75.2526 30.3186 65.1636 31.8911 54.9961 31.8862C44.8295 31.891 34.7406 30.3186 25.1884 27.2404L25.1915 27.2397ZM4.96743 35.8436C4.01291 35.3204 3.43285 34.3973 3.43668 33.4043V15.525C3.43668 14.8371 3.71598 14.1716 4.22315 13.6503C4.73109 13.1285 5.43317 12.7849 6.20273 12.6812C6.9731 12.5775 7.75881 12.7212 8.41941 13.0851L13.749 16.0279V40.6911L4.96743 35.8436ZM106.561 34.0048C106.565 34.9977 105.986 35.9208 105.03 36.4441L96.2488 41.2919V16.0284L101.578 13.087C102.238 12.7224 103.025 12.5787 103.794 12.6824C104.565 12.7861 105.267 13.1297 105.774 13.6509C106.282 14.1727 106.561 14.8376 106.561 15.5255L106.561 34.0048Z" fill="black"/>
</svg>
