<svg width="1200" height="660" viewBox="0 0 1200 660" fill="none" xmlns="http://www.w3.org/2000/svg">
<path d="M630 600C779.117 600 900 479.117 900 330C900 180.883 779.117 60 630 60C480.883 60 360 180.883 360 330C360 479.117 480.883 600 630 600Z" fill="#CDCDCD" fill-opacity="0.1" stroke="#CDCDCD"/>
<path d="M630 465C704.559 465 765 404.558 765 330C765 255.442 704.559 195 630 195C555.442 195 495 255.442 495 330C495 404.558 555.442 465 630 465Z" fill="#CDCDCD" fill-opacity="0.1" stroke="#CDCDCD"/>
<path d="M630 330V33" stroke="white" stroke-width="2"/>
<path d="M557.402 35.2545C557.351 34.8227 557.143 34.4875 556.78 34.2489C556.416 34.0102 555.97 33.8909 555.442 33.8909C555.055 33.8909 554.717 33.9534 554.428 34.0784C554.141 34.2034 553.916 34.3753 553.754 34.594C553.595 34.8128 553.516 35.0614 553.516 35.3398C553.516 35.5727 553.571 35.773 553.682 35.9406C553.795 36.1054 553.94 36.2432 554.116 36.354C554.293 36.4619 554.477 36.5514 554.67 36.6224C554.864 36.6906 555.041 36.746 555.203 36.7886L556.089 37.0273C556.317 37.0869 556.57 37.1693 556.848 37.2744C557.129 37.3795 557.398 37.523 557.653 37.7048C557.912 37.8838 558.125 38.1139 558.293 38.3952C558.46 38.6764 558.544 39.0216 558.544 39.4307C558.544 39.9023 558.42 40.3284 558.173 40.7091C557.929 41.0898 557.571 41.3923 557.099 41.6167C556.631 41.8412 556.061 41.9534 555.391 41.9534C554.766 41.9534 554.224 41.8525 553.767 41.6508C553.312 41.4491 552.954 41.1679 552.693 40.8071C552.435 40.4463 552.288 40.0273 552.254 39.55H553.345C553.374 39.8795 553.484 40.1523 553.678 40.3682C553.874 40.5812 554.121 40.7403 554.419 40.8454C554.72 40.9477 555.044 40.9989 555.391 40.9989C555.794 40.9989 556.156 40.9335 556.477 40.8028C556.798 40.6693 557.053 40.4846 557.24 40.2489C557.428 40.0102 557.521 39.7318 557.521 39.4136C557.521 39.1239 557.44 38.8881 557.278 38.7062C557.116 38.5244 556.903 38.3767 556.639 38.2631C556.375 38.1494 556.089 38.05 555.783 37.9648L554.709 37.6579C554.027 37.4619 553.487 37.1821 553.089 36.8185C552.692 36.4548 552.493 35.979 552.493 35.3909C552.493 34.9023 552.625 34.4761 552.889 34.1125C553.156 33.746 553.514 33.4619 553.963 33.2602C554.415 33.0557 554.919 32.9534 555.476 32.9534C556.038 32.9534 556.538 33.0542 556.976 33.256C557.413 33.4548 557.76 33.7275 558.016 34.0741C558.274 34.4207 558.41 34.8142 558.425 35.2545H557.402ZM562.992 35.2545V36.1068H559.6V35.2545H562.992ZM560.588 33.6864H561.594V39.925C561.594 40.2091 561.635 40.4221 561.718 40.5642C561.803 40.7034 561.911 40.7971 562.041 40.8454C562.175 40.8909 562.316 40.9136 562.463 40.9136C562.574 40.9136 562.665 40.9079 562.736 40.8966C562.807 40.8824 562.864 40.871 562.907 40.8625L563.111 41.7659C563.043 41.7915 562.948 41.817 562.826 41.8426C562.703 41.871 562.549 41.8852 562.361 41.8852C562.077 41.8852 561.799 41.8241 561.526 41.702C561.256 41.5798 561.032 41.3937 560.853 41.1437C560.676 40.8937 560.588 40.5784 560.588 40.1977V33.6864ZM566.431 41.9534C566.016 41.9534 565.64 41.8753 565.301 41.719C564.963 41.5599 564.695 41.3312 564.496 41.0329C564.297 40.7318 564.198 40.3682 564.198 39.942C564.198 39.567 564.272 39.2631 564.419 39.0301C564.567 38.7943 564.765 38.6096 565.012 38.4761C565.259 38.3426 565.532 38.2432 565.83 38.1778C566.131 38.1096 566.434 38.0557 566.738 38.0159C567.135 37.9648 567.458 37.9264 567.705 37.9008C567.955 37.8724 568.137 37.8256 568.25 37.7602C568.367 37.6949 568.425 37.5812 568.425 37.4193V37.3852C568.425 36.9648 568.31 36.6381 568.08 36.4051C567.853 36.1721 567.507 36.0557 567.044 36.0557C566.564 36.0557 566.188 36.1608 565.915 36.371C565.642 36.5812 565.451 36.8057 565.34 37.0443L564.385 36.7034C564.556 36.3057 564.783 35.996 565.067 35.7744C565.354 35.55 565.666 35.3937 566.005 35.3057C566.345 35.2148 566.681 35.1693 567.01 35.1693C567.22 35.1693 567.462 35.1949 567.735 35.246C568.01 35.2943 568.276 35.3952 568.532 35.5486C568.79 35.702 569.005 35.9335 569.175 36.2432C569.345 36.5528 569.431 36.9676 569.431 37.4875V41.8H568.425V40.9136H568.374C568.306 41.0557 568.192 41.2077 568.033 41.3696C567.874 41.5315 567.662 41.6693 567.398 41.7829C567.134 41.8966 566.811 41.9534 566.431 41.9534ZM566.584 41.05C566.982 41.05 567.317 40.9719 567.59 40.8156C567.865 40.6594 568.073 40.4577 568.212 40.2105C568.354 39.9633 568.425 39.7034 568.425 39.4307V38.5102C568.382 38.5614 568.289 38.6082 568.144 38.6508C568.002 38.6906 567.837 38.7261 567.649 38.7574C567.465 38.7858 567.284 38.8114 567.108 38.8341C566.935 38.854 566.794 38.871 566.686 38.8852C566.425 38.9193 566.181 38.9747 565.953 39.0514C565.729 39.1253 565.547 39.2375 565.408 39.3881C565.272 39.5358 565.203 39.7375 565.203 39.9932C565.203 40.3426 565.333 40.6068 565.591 40.7858C565.853 40.9619 566.184 41.05 566.584 41.05ZM574.113 35.2545V36.1068H570.721V35.2545H574.113ZM571.709 33.6864H572.715V39.925C572.715 40.2091 572.756 40.4221 572.839 40.5642C572.924 40.7034 573.032 40.7971 573.163 40.8454C573.296 40.8909 573.437 40.9136 573.584 40.9136C573.695 40.9136 573.786 40.9079 573.857 40.8966C573.928 40.8824 573.985 40.871 574.028 40.8625L574.232 41.7659C574.164 41.7915 574.069 41.817 573.947 41.8426C573.825 41.871 573.67 41.8852 573.482 41.8852C573.198 41.8852 572.92 41.8241 572.647 41.702C572.377 41.5798 572.153 41.3937 571.974 41.1437C571.798 40.8937 571.709 40.5784 571.709 40.1977V33.6864ZM575.626 41.8V35.2545H576.631V41.8H575.626ZM576.137 34.1636C575.941 34.1636 575.772 34.0969 575.63 33.9633C575.491 33.8298 575.421 33.6693 575.421 33.4818C575.421 33.2943 575.491 33.1338 575.63 33.0003C575.772 32.8667 575.941 32.8 576.137 32.8C576.333 32.8 576.501 32.8667 576.64 33.0003C576.782 33.1338 576.853 33.2943 576.853 33.4818C576.853 33.6693 576.782 33.8298 576.64 33.9633C576.501 34.0969 576.333 34.1636 576.137 34.1636ZM581.132 41.9364C580.541 41.9364 580.023 41.7957 579.577 41.5145C579.134 41.2332 578.787 40.8398 578.537 40.3341C578.29 39.8284 578.166 39.2375 578.166 38.5614C578.166 37.8795 578.29 37.2844 578.537 36.7758C578.787 36.2673 579.134 35.8724 579.577 35.5912C580.023 35.3099 580.541 35.1693 581.132 35.1693C581.723 35.1693 582.24 35.3099 582.684 35.5912C583.13 35.8724 583.476 36.2673 583.723 36.7758C583.973 37.2844 584.098 37.8795 584.098 38.5614C584.098 39.2375 583.973 39.8284 583.723 40.3341C583.476 40.8398 583.13 41.2332 582.684 41.5145C582.24 41.7957 581.723 41.9364 581.132 41.9364ZM581.132 41.0329C581.581 41.0329 581.951 40.9179 582.24 40.6878C582.53 40.4577 582.745 40.1551 582.884 39.7801C583.023 39.4051 583.093 38.9989 583.093 38.5614C583.093 38.1239 583.023 37.7162 582.884 37.3383C582.745 36.9605 582.53 36.6551 582.24 36.4221C581.951 36.1892 581.581 36.0727 581.132 36.0727C580.684 36.0727 580.314 36.1892 580.024 36.4221C579.735 36.6551 579.52 36.9605 579.381 37.3383C579.242 37.7162 579.172 38.1239 579.172 38.5614C579.172 38.9989 579.242 39.4051 579.381 39.7801C579.52 40.1551 579.735 40.4577 580.024 40.6878C580.314 40.9179 580.684 41.0329 581.132 41.0329ZM586.639 37.8625V41.8H585.633V35.2545H586.605V36.2773H586.69C586.844 35.9449 587.077 35.6778 587.389 35.4761C587.702 35.2716 588.105 35.1693 588.599 35.1693C589.043 35.1693 589.43 35.2602 589.763 35.442C590.095 35.621 590.354 35.8937 590.538 36.2602C590.723 36.6239 590.815 37.0841 590.815 37.6409V41.8H589.81V37.7091C589.81 37.1949 589.676 36.7943 589.409 36.5074C589.142 36.2176 588.776 36.0727 588.31 36.0727C587.989 36.0727 587.702 36.1423 587.449 36.2815C587.199 36.4207 587.001 36.6239 586.856 36.8909C586.712 37.1579 586.639 37.4818 586.639 37.8625ZM594.579 41.9534C594.164 41.9534 593.788 41.8753 593.45 41.719C593.112 41.5599 592.843 41.3312 592.644 41.0329C592.446 40.7318 592.346 40.3682 592.346 39.942C592.346 39.567 592.42 39.2631 592.568 39.0301C592.715 38.7943 592.913 38.6096 593.16 38.4761C593.407 38.3426 593.68 38.2432 593.978 38.1778C594.279 38.1096 594.582 38.0557 594.886 38.0159C595.284 37.9648 595.606 37.9264 595.853 37.9008C596.103 37.8724 596.285 37.8256 596.399 37.7602C596.515 37.6949 596.573 37.5812 596.573 37.4193V37.3852C596.573 36.9648 596.458 36.6381 596.228 36.4051C596.001 36.1721 595.656 36.0557 595.193 36.0557C594.713 36.0557 594.336 36.1608 594.064 36.371C593.791 36.5812 593.599 36.8057 593.488 37.0443L592.534 36.7034C592.704 36.3057 592.931 35.996 593.215 35.7744C593.502 35.55 593.815 35.3937 594.153 35.3057C594.494 35.2148 594.829 35.1693 595.159 35.1693C595.369 35.1693 595.61 35.1949 595.883 35.246C596.159 35.2943 596.424 35.3952 596.68 35.5486C596.939 35.702 597.153 35.9335 597.323 36.2432C597.494 36.5528 597.579 36.9676 597.579 37.4875V41.8H596.573V40.9136H596.522C596.454 41.0557 596.34 41.2077 596.181 41.3696C596.022 41.5315 595.811 41.6693 595.546 41.7829C595.282 41.8966 594.96 41.9534 594.579 41.9534ZM594.733 41.05C595.13 41.05 595.465 40.9719 595.738 40.8156C596.014 40.6594 596.221 40.4577 596.36 40.2105C596.502 39.9633 596.573 39.7034 596.573 39.4307V38.5102C596.531 38.5614 596.437 38.6082 596.292 38.6508C596.15 38.6906 595.985 38.7261 595.798 38.7574C595.613 38.7858 595.433 38.8114 595.257 38.8341C595.083 38.854 594.943 38.871 594.835 38.8852C594.573 38.9193 594.329 38.9747 594.102 39.0514C593.877 39.1253 593.696 39.2375 593.556 39.3881C593.42 39.5358 593.352 39.7375 593.352 39.9932C593.352 40.3426 593.481 40.6068 593.74 40.7858C594.001 40.9619 594.332 41.05 594.733 41.05ZM599.415 41.8V35.2545H600.386V36.2432H600.454C600.574 35.9193 600.79 35.6565 601.102 35.4548C601.415 35.2531 601.767 35.1523 602.159 35.1523C602.233 35.1523 602.325 35.1537 602.436 35.1565C602.547 35.1594 602.631 35.1636 602.687 35.1693V36.192C602.653 36.1835 602.575 36.1707 602.453 36.1537C602.334 36.1338 602.207 36.1239 602.074 36.1239C601.756 36.1239 601.472 36.1906 601.222 36.3241C600.974 36.4548 600.778 36.6366 600.633 36.8696C600.491 37.0997 600.42 37.3625 600.42 37.6579V41.8H599.415ZM604.727 44.2545C604.556 44.2545 604.404 44.2403 604.271 44.2119C604.137 44.1864 604.045 44.1608 603.994 44.1352L604.249 43.2489C604.494 43.3114 604.709 43.3341 604.897 43.317C605.084 43.3 605.251 43.2162 605.396 43.0656C605.543 42.9179 605.678 42.6778 605.8 42.3454L605.988 41.8341L603.567 35.2545H604.658L606.465 40.4704H606.533L608.34 35.2545H609.431L606.653 42.7545C606.528 43.0926 606.373 43.3724 606.188 43.594C606.003 43.8185 605.789 43.9846 605.545 44.0926C605.303 44.2006 605.03 44.2545 604.727 44.2545ZM614.27 41.8V33.0727H619.503V34.0102H615.327V36.9591H619.111V37.8966H615.327V41.8H614.27ZM624.891 39.1239V35.2545H625.897V41.8H624.891V40.692H624.823C624.67 41.0244 624.431 41.3071 624.107 41.54C623.783 41.7702 623.374 41.8852 622.88 41.8852C622.471 41.8852 622.107 41.7957 621.789 41.6167C621.471 41.4349 621.221 41.1622 621.039 40.7986C620.857 40.4321 620.766 39.9704 620.766 39.4136V35.2545H621.772V39.3454C621.772 39.8227 621.905 40.2034 622.173 40.4875C622.442 40.7716 622.786 40.9136 623.204 40.9136C623.454 40.9136 623.708 40.8497 623.967 40.7219C624.228 40.594 624.447 40.398 624.623 40.1338C624.802 39.8696 624.891 39.5329 624.891 39.1239ZM630.483 41.9364C629.853 41.9364 629.309 41.7971 628.851 41.5187C628.397 41.2375 628.046 40.8454 627.799 40.3426C627.554 39.8369 627.432 39.2489 627.432 38.5784C627.432 37.9079 627.554 37.317 627.799 36.8057C628.046 36.2915 628.39 35.8909 628.83 35.604C629.273 35.3142 629.79 35.1693 630.381 35.1693C630.722 35.1693 631.059 35.2261 631.391 35.3398C631.723 35.4534 632.026 35.6381 632.299 35.8937C632.571 36.1466 632.789 36.4818 632.951 36.8994C633.113 37.317 633.193 37.8312 633.193 38.442V38.8682H628.148V37.9989H632.171C632.171 37.6295 632.097 37.3 631.949 37.0102C631.804 36.7204 631.597 36.4917 631.327 36.3241C631.06 36.1565 630.745 36.0727 630.381 36.0727C629.98 36.0727 629.634 36.1721 629.341 36.371C629.051 36.567 628.828 36.8227 628.672 37.1381C628.516 37.4534 628.438 37.7915 628.438 38.1523V38.7318C628.438 39.2261 628.523 39.6452 628.693 39.9889C628.867 40.3298 629.107 40.5898 629.414 40.7687C629.72 40.9449 630.077 41.0329 630.483 41.0329C630.747 41.0329 630.986 40.996 631.199 40.9221C631.415 40.8454 631.601 40.7318 631.757 40.5812C631.914 40.4278 632.034 40.2375 632.12 40.0102L633.091 40.2829C632.989 40.6125 632.817 40.9023 632.576 41.1523C632.334 41.3994 632.036 41.5926 631.681 41.7318C631.326 41.8682 630.926 41.9364 630.483 41.9364ZM635.729 33.0727V41.8H634.723V33.0727H635.729ZM648.105 35.8H647.048C646.986 35.496 646.876 35.229 646.72 34.9989C646.567 34.7687 646.379 34.5756 646.158 34.4193C645.939 34.2602 645.696 34.1409 645.429 34.0614C645.162 33.9818 644.883 33.942 644.594 33.942C644.065 33.942 643.587 34.0756 643.158 34.3426C642.731 34.6096 642.392 35.0031 642.139 35.523C641.889 36.0429 641.764 36.6807 641.764 37.4364C641.764 38.192 641.889 38.8298 642.139 39.3497C642.392 39.8696 642.731 40.2631 643.158 40.5301C643.587 40.7971 644.065 40.9307 644.594 40.9307C644.883 40.9307 645.162 40.8909 645.429 40.8114C645.696 40.7318 645.939 40.6139 646.158 40.4577C646.379 40.2986 646.567 40.104 646.72 39.8739C646.876 39.6409 646.986 39.3739 647.048 39.0727H648.105C648.026 39.5187 647.881 39.9179 647.67 40.2702C647.46 40.6224 647.199 40.9221 646.886 41.1693C646.574 41.4136 646.223 41.5997 645.834 41.7275C645.447 41.8554 645.034 41.9193 644.594 41.9193C643.849 41.9193 643.187 41.7375 642.608 41.3739C642.028 41.0102 641.572 40.4932 641.24 39.8227C640.908 39.1523 640.741 38.3568 640.741 37.4364C640.741 36.5159 640.908 35.7204 641.24 35.05C641.572 34.3795 642.028 33.8625 642.608 33.4989C643.187 33.1352 643.849 32.9534 644.594 32.9534C645.034 32.9534 645.447 33.0173 645.834 33.1452C646.223 33.273 646.574 33.4605 646.886 33.7077C647.199 33.952 647.46 34.2503 647.67 34.6025C647.881 34.952 648.026 35.3511 648.105 35.8ZM652.336 41.9364C651.745 41.9364 651.226 41.7957 650.78 41.5145C650.337 41.2332 649.99 40.8398 649.74 40.3341C649.493 39.8284 649.37 39.2375 649.37 38.5614C649.37 37.8795 649.493 37.2844 649.74 36.7758C649.99 36.2673 650.337 35.8724 650.78 35.5912C651.226 35.3099 651.745 35.1693 652.336 35.1693C652.926 35.1693 653.443 35.3099 653.887 35.5912C654.333 35.8724 654.679 36.2673 654.926 36.7758C655.176 37.2844 655.301 37.8795 655.301 38.5614C655.301 39.2375 655.176 39.8284 654.926 40.3341C654.679 40.8398 654.333 41.2332 653.887 41.5145C653.443 41.7957 652.926 41.9364 652.336 41.9364ZM652.336 41.0329C652.784 41.0329 653.154 40.9179 653.443 40.6878C653.733 40.4577 653.948 40.1551 654.087 39.7801C654.226 39.4051 654.296 38.9989 654.296 38.5614C654.296 38.1239 654.226 37.7162 654.087 37.3383C653.948 36.9605 653.733 36.6551 653.443 36.4221C653.154 36.1892 652.784 36.0727 652.336 36.0727C651.887 36.0727 651.517 36.1892 651.228 36.4221C650.938 36.6551 650.723 36.9605 650.584 37.3383C650.445 37.7162 650.375 38.1239 650.375 38.5614C650.375 38.9989 650.445 39.4051 650.584 39.7801C650.723 40.1551 650.938 40.4577 651.228 40.6878C651.517 40.9179 651.887 41.0329 652.336 41.0329ZM656.837 41.8V35.2545H657.808V36.2773H657.893C658.03 35.9278 658.25 35.6565 658.554 35.4633C658.858 35.2673 659.223 35.1693 659.649 35.1693C660.081 35.1693 660.44 35.2673 660.727 35.4633C661.017 35.6565 661.243 35.9278 661.405 36.2773H661.473C661.641 35.9392 661.892 35.6707 662.227 35.4719C662.562 35.2702 662.964 35.1693 663.433 35.1693C664.018 35.1693 664.497 35.3525 664.869 35.719C665.241 36.0827 665.428 36.6494 665.428 37.4193V41.8H664.422V37.4193C664.422 36.9364 664.29 36.5912 664.026 36.3838C663.761 36.1764 663.45 36.0727 663.092 36.0727C662.632 36.0727 662.276 36.2119 662.023 36.4903C661.77 36.7659 661.643 37.1153 661.643 37.5386V41.8H660.621V37.317C660.621 36.9449 660.5 36.6452 660.258 36.4179C660.017 36.1878 659.706 36.0727 659.325 36.0727C659.064 36.0727 658.82 36.1423 658.592 36.2815C658.368 36.4207 658.186 36.6139 658.047 36.8611C657.91 37.1054 657.842 37.3881 657.842 37.7091V41.8H656.837ZM667.403 41.8V33.0727H668.408V36.2943H668.494C668.567 36.1807 668.67 36.0358 668.8 35.8596C668.934 35.6807 669.124 35.5216 669.371 35.3824C669.621 35.2403 669.959 35.1693 670.386 35.1693C670.937 35.1693 671.423 35.3071 671.843 35.5827C672.263 35.8582 672.592 36.2489 672.827 36.7545C673.063 37.2602 673.181 37.8568 673.181 38.5443C673.181 39.2375 673.063 39.8383 672.827 40.3469C672.592 40.8525 672.265 41.2446 671.847 41.523C671.43 41.7986 670.948 41.9364 670.403 41.9364C669.982 41.9364 669.646 41.8667 669.393 41.7275C669.14 41.5855 668.945 41.425 668.809 41.246C668.673 41.0642 668.567 40.9136 668.494 40.7943H668.374V41.8H667.403ZM668.391 38.5273C668.391 39.0216 668.464 39.4577 668.609 39.8355C668.753 40.2105 668.965 40.5045 669.244 40.7176C669.522 40.9278 669.863 41.0329 670.266 41.0329C670.687 41.0329 671.038 40.9221 671.319 40.7006C671.603 40.4761 671.816 40.175 671.958 39.7971C672.103 39.4165 672.175 38.9932 672.175 38.5273C672.175 38.067 672.104 37.6523 671.962 37.2829C671.823 36.9108 671.611 36.6167 671.327 36.4008C671.046 36.1821 670.692 36.0727 670.266 36.0727C669.857 36.0727 669.513 36.1764 669.235 36.3838C668.957 36.5883 668.746 36.8753 668.604 37.2446C668.462 37.6111 668.391 38.0386 668.391 38.5273ZM678.844 39.1239V35.2545H679.85V41.8H678.844V40.692H678.776C678.623 41.0244 678.384 41.3071 678.06 41.54C677.736 41.7702 677.327 41.8852 676.833 41.8852C676.424 41.8852 676.06 41.7957 675.742 41.6167C675.424 41.4349 675.174 41.1622 674.992 40.7986C674.81 40.4321 674.719 39.9704 674.719 39.4136V35.2545H675.725V39.3454C675.725 39.8227 675.859 40.2034 676.126 40.4875C676.396 40.7716 676.739 40.9136 677.157 40.9136C677.407 40.9136 677.661 40.8497 677.92 40.7219C678.181 40.594 678.4 40.398 678.576 40.1338C678.755 39.8696 678.844 39.5329 678.844 39.1239ZM686.328 36.7204L685.425 36.9761C685.368 36.8256 685.284 36.6792 685.174 36.5372C685.066 36.3923 684.918 36.273 684.73 36.1792C684.543 36.0855 684.303 36.0386 684.01 36.0386C683.61 36.0386 683.276 36.131 683.009 36.3156C682.745 36.4974 682.613 36.729 682.613 37.0102C682.613 37.2602 682.703 37.4577 682.885 37.6025C683.067 37.7474 683.351 37.8682 683.738 37.9648L684.709 38.2034C685.294 38.3454 685.73 38.5628 686.017 38.8554C686.304 39.1452 686.448 39.5187 686.448 39.9761C686.448 40.3511 686.34 40.6864 686.124 40.9818C685.911 41.2773 685.613 41.5102 685.229 41.6807C684.845 41.8511 684.399 41.9364 683.891 41.9364C683.223 41.9364 682.671 41.7915 682.233 41.5017C681.796 41.2119 681.519 40.7886 681.402 40.2318L682.357 39.9932C682.448 40.3454 682.62 40.6096 682.872 40.7858C683.128 40.9619 683.462 41.05 683.874 41.05C684.343 41.05 684.715 40.9506 684.99 40.7517C685.269 40.55 685.408 40.3085 685.408 40.0273C685.408 39.8 685.328 39.6096 685.169 39.4562C685.01 39.3 684.766 39.1835 684.436 39.1068L683.345 38.8511C682.746 38.7091 682.306 38.4889 682.024 38.1906C681.746 37.8895 681.607 37.5131 681.607 37.0614C681.607 36.692 681.711 36.3653 681.918 36.0812C682.128 35.7971 682.414 35.5741 682.774 35.4122C683.138 35.2503 683.55 35.1693 684.01 35.1693C684.658 35.1693 685.166 35.3114 685.536 35.5954C685.908 35.8795 686.172 36.2545 686.328 36.7204ZM690.808 35.2545V36.1068H687.416V35.2545H690.808ZM688.405 33.6864H689.41V39.925C689.41 40.2091 689.452 40.4221 689.534 40.5642C689.619 40.7034 689.727 40.7971 689.858 40.8454C689.991 40.8909 690.132 40.9136 690.28 40.9136C690.391 40.9136 690.481 40.9079 690.553 40.8966C690.624 40.8824 690.68 40.871 690.723 40.8625L690.928 41.7659C690.859 41.7915 690.764 41.817 690.642 41.8426C690.52 41.871 690.365 41.8852 690.178 41.8852C689.893 41.8852 689.615 41.8241 689.342 41.702C689.072 41.5798 688.848 41.3937 688.669 41.1437C688.493 40.8937 688.405 40.5784 688.405 40.1977V33.6864ZM692.321 41.8V35.2545H693.327V41.8H692.321ZM692.832 34.1636C692.636 34.1636 692.467 34.0969 692.325 33.9633C692.186 33.8298 692.116 33.6693 692.116 33.4818C692.116 33.2943 692.186 33.1338 692.325 33.0003C692.467 32.8667 692.636 32.8 692.832 32.8C693.028 32.8 693.196 32.8667 693.335 33.0003C693.477 33.1338 693.548 33.2943 693.548 33.4818C693.548 33.6693 693.477 33.8298 693.335 33.9633C693.196 34.0969 693.028 34.1636 692.832 34.1636ZM697.828 41.9364C697.237 41.9364 696.718 41.7957 696.272 41.5145C695.829 41.2332 695.483 40.8398 695.233 40.3341C694.985 39.8284 694.862 39.2375 694.862 38.5614C694.862 37.8795 694.985 37.2844 695.233 36.7758C695.483 36.2673 695.829 35.8724 696.272 35.5912C696.718 35.3099 697.237 35.1693 697.828 35.1693C698.419 35.1693 698.936 35.3099 699.379 35.5912C699.825 35.8724 700.171 36.2673 700.419 36.7758C700.669 37.2844 700.794 37.8795 700.794 38.5614C700.794 39.2375 700.669 39.8284 700.419 40.3341C700.171 40.8398 699.825 41.2332 699.379 41.5145C698.936 41.7957 698.419 41.9364 697.828 41.9364ZM697.828 41.0329C698.277 41.0329 698.646 40.9179 698.936 40.6878C699.225 40.4577 699.44 40.1551 699.579 39.7801C699.718 39.4051 699.788 38.9989 699.788 38.5614C699.788 38.1239 699.718 37.7162 699.579 37.3383C699.44 36.9605 699.225 36.6551 698.936 36.4221C698.646 36.1892 698.277 36.0727 697.828 36.0727C697.379 36.0727 697.01 36.1892 696.72 36.4221C696.43 36.6551 696.215 36.9605 696.076 37.3383C695.937 37.7162 695.867 38.1239 695.867 38.5614C695.867 38.9989 695.937 39.4051 696.076 39.7801C696.215 40.1551 696.43 40.4577 696.72 40.6878C697.01 40.9179 697.379 41.0329 697.828 41.0329ZM703.334 37.8625V41.8H702.329V35.2545H703.3V36.2773H703.386C703.539 35.9449 703.772 35.6778 704.084 35.4761C704.397 35.2716 704.8 35.1693 705.295 35.1693C705.738 35.1693 706.126 35.2602 706.458 35.442C706.79 35.621 707.049 35.8937 707.234 36.2602C707.418 36.6239 707.511 37.0841 707.511 37.6409V41.8H706.505V37.7091C706.505 37.1949 706.371 36.7943 706.104 36.5074C705.837 36.2176 705.471 36.0727 705.005 36.0727C704.684 36.0727 704.397 36.1423 704.144 36.2815C703.894 36.4207 703.697 36.6239 703.552 36.8909C703.407 37.1579 703.334 37.4818 703.334 37.8625Z" fill="black"/>
<path d="M630 330H927" stroke="white" stroke-width="2"/>
<path d="M847.397 335.473V344.2H846.34V335.473H847.397ZM850.385 340.262V344.2H849.379V337.655H850.351V338.677H850.436C850.589 338.345 850.822 338.078 851.135 337.876C851.447 337.672 851.851 337.569 852.345 337.569C852.788 337.569 853.176 337.66 853.508 337.842C853.841 338.021 854.099 338.294 854.284 338.66C854.469 339.024 854.561 339.484 854.561 340.041V344.2H853.555V340.109C853.555 339.595 853.422 339.194 853.155 338.907C852.888 338.618 852.521 338.473 852.055 338.473C851.734 338.473 851.447 338.542 851.195 338.682C850.945 338.821 850.747 339.024 850.602 339.291C850.457 339.558 850.385 339.882 850.385 340.262ZM858.87 344.336C858.325 344.336 857.843 344.199 857.426 343.923C857.008 343.645 856.681 343.253 856.446 342.747C856.21 342.238 856.092 341.637 856.092 340.944C856.092 340.257 856.21 339.66 856.446 339.155C856.681 338.649 857.01 338.258 857.43 337.983C857.85 337.707 858.336 337.569 858.887 337.569C859.313 337.569 859.65 337.64 859.897 337.782C860.147 337.922 860.338 338.081 860.468 338.26C860.602 338.436 860.706 338.581 860.779 338.694H860.865V335.473H861.87V344.2H860.899V343.194H860.779C860.706 343.314 860.6 343.464 860.464 343.646C860.328 343.825 860.133 343.986 859.88 344.128C859.627 344.267 859.291 344.336 858.87 344.336ZM859.007 343.433C859.41 343.433 859.751 343.328 860.029 343.118C860.308 342.905 860.519 342.611 860.664 342.236C860.809 341.858 860.882 341.422 860.882 340.927C860.882 340.439 860.811 340.011 860.669 339.645C860.527 339.275 860.316 338.988 860.038 338.784C859.76 338.576 859.416 338.473 859.007 338.473C858.581 338.473 858.225 338.582 857.941 338.801C857.66 339.017 857.448 339.311 857.306 339.683C857.167 340.052 857.098 340.467 857.098 340.927C857.098 341.393 857.169 341.816 857.311 342.197C857.456 342.575 857.669 342.876 857.95 343.101C858.234 343.322 858.586 343.433 859.007 343.433ZM867.977 341.524V337.655H868.983V344.2H867.977V343.092H867.909C867.755 343.424 867.517 343.707 867.193 343.94C866.869 344.17 866.46 344.285 865.965 344.285C865.556 344.285 865.193 344.196 864.875 344.017C864.556 343.835 864.306 343.562 864.125 343.199C863.943 342.832 863.852 342.37 863.852 341.814V337.655H864.858V341.745C864.858 342.223 864.991 342.603 865.258 342.887C865.528 343.172 865.872 343.314 866.289 343.314C866.539 343.314 866.794 343.25 867.052 343.122C867.313 342.994 867.532 342.798 867.708 342.534C867.887 342.27 867.977 341.933 867.977 341.524ZM875.461 339.12L874.557 339.376C874.501 339.226 874.417 339.079 874.306 338.937C874.198 338.792 874.05 338.673 873.863 338.579C873.675 338.486 873.435 338.439 873.143 338.439C872.742 338.439 872.408 338.531 872.141 338.716C871.877 338.897 871.745 339.129 871.745 339.41C871.745 339.66 871.836 339.858 872.018 340.003C872.2 340.147 872.484 340.268 872.87 340.365L873.842 340.603C874.427 340.745 874.863 340.963 875.15 341.255C875.437 341.545 875.58 341.919 875.58 342.376C875.58 342.751 875.472 343.086 875.256 343.382C875.043 343.677 874.745 343.91 874.361 344.081C873.978 344.251 873.532 344.336 873.023 344.336C872.356 344.336 871.803 344.191 871.366 343.902C870.928 343.612 870.651 343.189 870.535 342.632L871.489 342.393C871.58 342.745 871.752 343.01 872.005 343.186C872.261 343.362 872.594 343.45 873.006 343.45C873.475 343.45 873.847 343.351 874.123 343.152C874.401 342.95 874.54 342.709 874.54 342.427C874.54 342.2 874.461 342.01 874.302 341.856C874.143 341.7 873.898 341.584 873.569 341.507L872.478 341.251C871.878 341.109 871.438 340.889 871.157 340.591C870.878 340.289 870.739 339.913 870.739 339.461C870.739 339.092 870.843 338.765 871.05 338.481C871.261 338.197 871.546 337.974 871.907 337.812C872.271 337.65 872.682 337.569 873.143 337.569C873.79 337.569 874.299 337.711 874.668 337.995C875.04 338.28 875.305 338.655 875.461 339.12ZM879.941 337.655V338.507H876.549V337.655H879.941ZM877.537 336.086H878.543V342.325C878.543 342.609 878.584 342.822 878.666 342.964C878.752 343.103 878.86 343.197 878.99 343.245C879.124 343.291 879.264 343.314 879.412 343.314C879.523 343.314 879.614 343.308 879.685 343.297C879.756 343.282 879.813 343.271 879.855 343.262L880.06 344.166C879.992 344.191 879.897 344.217 879.774 344.243C879.652 344.271 879.497 344.285 879.31 344.285C879.026 344.285 878.747 344.224 878.475 344.102C878.205 343.98 877.98 343.794 877.801 343.544C877.625 343.294 877.537 342.978 877.537 342.598V336.086ZM881.453 344.2V337.655H882.425V338.643H882.493C882.613 338.319 882.828 338.057 883.141 337.855C883.453 337.653 883.806 337.552 884.198 337.552C884.272 337.552 884.364 337.554 884.475 337.557C884.586 337.559 884.669 337.564 884.726 337.569V338.592C884.692 338.584 884.614 338.571 884.492 338.554C884.372 338.534 884.246 338.524 884.113 338.524C883.794 338.524 883.51 338.591 883.26 338.724C883.013 338.855 882.817 339.037 882.672 339.27C882.53 339.5 882.459 339.762 882.459 340.058V344.2H881.453ZM885.918 344.2V337.655H886.924V344.2H885.918ZM886.43 336.564C886.234 336.564 886.065 336.497 885.923 336.363C885.783 336.23 885.714 336.069 885.714 335.882C885.714 335.694 885.783 335.534 885.923 335.4C886.065 335.267 886.234 335.2 886.43 335.2C886.626 335.2 886.793 335.267 886.932 335.4C887.075 335.534 887.146 335.694 887.146 335.882C887.146 336.069 887.075 336.23 886.932 336.363C886.793 336.497 886.626 336.564 886.43 336.564ZM890.692 344.353C890.277 344.353 889.901 344.275 889.563 344.119C889.225 343.96 888.956 343.731 888.757 343.433C888.559 343.132 888.459 342.768 888.459 342.342C888.459 341.967 888.533 341.663 888.681 341.43C888.828 341.194 889.026 341.01 889.273 340.876C889.52 340.743 889.793 340.643 890.091 340.578C890.392 340.51 890.695 340.456 890.999 340.416C891.397 340.365 891.719 340.326 891.966 340.301C892.216 340.272 892.398 340.226 892.512 340.16C892.628 340.095 892.686 339.981 892.686 339.819V339.785C892.686 339.365 892.571 339.038 892.341 338.805C892.114 338.572 891.769 338.456 891.306 338.456C890.826 338.456 890.449 338.561 890.176 338.771C889.904 338.981 889.712 339.206 889.601 339.444L888.647 339.103C888.817 338.706 889.044 338.396 889.328 338.174C889.615 337.95 889.928 337.794 890.266 337.706C890.607 337.615 890.942 337.569 891.272 337.569C891.482 337.569 891.723 337.595 891.996 337.646C892.272 337.694 892.537 337.795 892.793 337.949C893.051 338.102 893.266 338.334 893.436 338.643C893.607 338.953 893.692 339.368 893.692 339.887V344.2H892.686V343.314H892.635C892.567 343.456 892.453 343.608 892.294 343.77C892.135 343.932 891.924 344.069 891.659 344.183C891.395 344.297 891.073 344.353 890.692 344.353ZM890.845 343.45C891.243 343.45 891.578 343.372 891.851 343.216C892.127 343.059 892.334 342.858 892.473 342.611C892.615 342.363 892.686 342.103 892.686 341.831V340.91C892.644 340.961 892.55 341.008 892.405 341.051C892.263 341.091 892.098 341.126 891.911 341.157C891.726 341.186 891.546 341.211 891.37 341.234C891.196 341.254 891.056 341.271 890.948 341.285C890.686 341.319 890.442 341.375 890.215 341.451C889.99 341.525 889.809 341.637 889.669 341.788C889.533 341.936 889.465 342.137 889.465 342.393C889.465 342.743 889.594 343.007 889.853 343.186C890.114 343.362 890.445 343.45 890.845 343.45ZM896.533 335.473V344.2H895.528V335.473H896.533ZM903.676 344.353C903.262 344.353 902.885 344.275 902.547 344.119C902.209 343.96 901.941 343.731 901.742 343.433C901.543 343.132 901.443 342.768 901.443 342.342C901.443 341.967 901.517 341.663 901.665 341.43C901.813 341.194 902.01 341.01 902.257 340.876C902.505 340.743 902.777 340.643 903.076 340.578C903.377 340.51 903.679 340.456 903.983 340.416C904.381 340.365 904.703 340.326 904.951 340.301C905.201 340.272 905.382 340.226 905.496 340.16C905.613 340.095 905.671 339.981 905.671 339.819V339.785C905.671 339.365 905.556 339.038 905.326 338.805C905.098 338.572 904.753 338.456 904.29 338.456C903.81 338.456 903.434 338.561 903.161 338.771C902.888 338.981 902.696 339.206 902.586 339.444L901.631 339.103C901.801 338.706 902.029 338.396 902.313 338.174C902.6 337.95 902.912 337.794 903.25 337.706C903.591 337.615 903.926 337.569 904.256 337.569C904.466 337.569 904.708 337.595 904.98 337.646C905.256 337.694 905.522 337.795 905.777 337.949C906.036 338.102 906.25 338.334 906.421 338.643C906.591 338.953 906.676 339.368 906.676 339.887V344.2H905.671V343.314H905.62C905.551 343.456 905.438 343.608 905.279 343.77C905.12 343.932 904.908 344.069 904.644 344.183C904.38 344.297 904.057 344.353 903.676 344.353ZM903.83 343.45C904.228 343.45 904.563 343.372 904.836 343.216C905.111 343.059 905.318 342.858 905.458 342.611C905.6 342.363 905.671 342.103 905.671 341.831V340.91C905.628 340.961 905.534 341.008 905.389 341.051C905.247 341.091 905.083 341.126 904.895 341.157C904.711 341.186 904.53 341.211 904.354 341.234C904.181 341.254 904.04 341.271 903.932 341.285C903.671 341.319 903.426 341.375 903.199 341.451C902.975 341.525 902.793 341.637 902.654 341.788C902.517 341.936 902.449 342.137 902.449 342.393C902.449 342.743 902.578 343.007 902.837 343.186C903.098 343.362 903.429 343.45 903.83 343.45ZM909.518 340.262V344.2H908.512V337.655H909.484V338.677H909.569C909.722 338.345 909.955 338.078 910.268 337.876C910.58 337.672 910.984 337.569 911.478 337.569C911.921 337.569 912.309 337.66 912.641 337.842C912.974 338.021 913.232 338.294 913.417 338.66C913.601 339.024 913.694 339.484 913.694 340.041V344.2H912.688V340.109C912.688 339.595 912.555 339.194 912.288 338.907C912.021 338.618 911.654 338.473 911.188 338.473C910.867 338.473 910.58 338.542 910.327 338.682C910.077 338.821 909.88 339.024 909.735 339.291C909.59 339.558 909.518 339.882 909.518 340.262ZM918.003 344.336C917.458 344.336 916.976 344.199 916.559 343.923C916.141 343.645 915.814 343.253 915.578 342.747C915.343 342.238 915.225 341.637 915.225 340.944C915.225 340.257 915.343 339.66 915.578 339.155C915.814 338.649 916.142 338.258 916.563 337.983C916.983 337.707 917.469 337.569 918.02 337.569C918.446 337.569 918.783 337.64 919.03 337.782C919.28 337.922 919.47 338.081 919.601 338.26C919.735 338.436 919.838 338.581 919.912 338.694H919.997V335.473H921.003V344.2H920.032V343.194H919.912C919.838 343.314 919.733 343.464 919.597 343.646C919.461 343.825 919.266 343.986 919.013 344.128C918.76 344.267 918.424 344.336 918.003 344.336ZM918.139 343.433C918.543 343.433 918.884 343.328 919.162 343.118C919.441 342.905 919.652 342.611 919.797 342.236C919.942 341.858 920.014 341.422 920.014 340.927C920.014 340.439 919.943 340.011 919.801 339.645C919.659 339.275 919.449 338.988 919.171 338.784C918.892 338.576 918.549 338.473 918.139 338.473C917.713 338.473 917.358 338.582 917.074 338.801C916.793 339.017 916.581 339.311 916.439 339.683C916.3 340.052 916.23 340.467 916.23 340.927C916.23 341.393 916.301 341.816 916.443 342.197C916.588 342.575 916.801 342.876 917.083 343.101C917.367 343.322 917.719 343.433 918.139 343.433ZM933.86 339.836C933.86 340.757 933.693 341.552 933.361 342.223C933.029 342.893 932.573 343.41 931.993 343.774C931.414 344.137 930.752 344.319 930.007 344.319C929.263 344.319 928.601 344.137 928.022 343.774C927.442 343.41 926.986 342.893 926.654 342.223C926.321 341.552 926.155 340.757 926.155 339.836C926.155 338.916 926.321 338.12 926.654 337.45C926.986 336.78 927.442 336.262 928.022 335.899C928.601 335.535 929.263 335.353 930.007 335.353C930.752 335.353 931.414 335.535 931.993 335.899C932.573 336.262 933.029 336.78 933.361 337.45C933.693 338.12 933.86 338.916 933.86 339.836ZM932.837 339.836C932.837 339.081 932.711 338.443 932.458 337.923C932.208 337.403 931.868 337.01 931.439 336.743C931.013 336.476 930.536 336.342 930.007 336.342C929.479 336.342 929 336.476 928.571 336.743C928.145 337.01 927.806 337.403 927.553 337.923C927.303 338.443 927.178 339.081 927.178 339.836C927.178 340.592 927.303 341.23 927.553 341.75C927.806 342.27 928.145 342.663 928.571 342.93C929 343.197 929.479 343.331 930.007 343.331C930.536 343.331 931.013 343.197 931.439 342.93C931.868 342.663 932.208 342.27 932.458 341.75C932.711 341.23 932.837 340.592 932.837 339.836ZM938.347 337.655V338.507H934.955V337.655H938.347ZM935.943 336.086H936.949V342.325C936.949 342.609 936.99 342.822 937.073 342.964C937.158 343.103 937.266 343.197 937.397 343.245C937.53 343.291 937.671 343.314 937.818 343.314C937.929 343.314 938.02 343.308 938.091 343.297C938.162 343.282 938.219 343.271 938.262 343.262L938.466 344.166C938.398 344.191 938.303 344.217 938.181 344.243C938.059 344.271 937.904 344.285 937.716 344.285C937.432 344.285 937.154 344.224 936.881 344.102C936.611 343.98 936.387 343.794 936.208 343.544C936.032 343.294 935.943 342.978 935.943 342.598V336.086ZM941.006 340.262V344.2H940V335.473H941.006V338.677H941.091C941.245 338.339 941.475 338.071 941.782 337.872C942.091 337.67 942.503 337.569 943.017 337.569C943.463 337.569 943.854 337.659 944.189 337.838C944.524 338.014 944.784 338.285 944.969 338.652C945.157 339.015 945.25 339.478 945.25 340.041V344.2H944.245V340.109C944.245 339.589 944.11 339.187 943.84 338.903C943.573 338.616 943.202 338.473 942.728 338.473C942.398 338.473 942.103 338.542 941.841 338.682C941.583 338.821 941.378 339.024 941.228 339.291C941.08 339.558 941.006 339.882 941.006 340.262ZM949.834 344.336C949.204 344.336 948.66 344.197 948.202 343.919C947.748 343.637 947.397 343.245 947.15 342.743C946.905 342.237 946.783 341.649 946.783 340.978C946.783 340.308 946.905 339.717 947.15 339.206C947.397 338.691 947.741 338.291 948.181 338.004C948.624 337.714 949.141 337.569 949.732 337.569C950.073 337.569 950.41 337.626 950.742 337.74C951.075 337.853 951.377 338.038 951.65 338.294C951.923 338.547 952.14 338.882 952.302 339.299C952.464 339.717 952.545 340.231 952.545 340.842V341.268H947.499V340.399H951.522C951.522 340.03 951.448 339.7 951.3 339.41C951.155 339.12 950.948 338.892 950.678 338.724C950.411 338.557 950.096 338.473 949.732 338.473C949.332 338.473 948.985 338.572 948.692 338.771C948.403 338.967 948.18 339.223 948.023 339.538C947.867 339.853 947.789 340.191 947.789 340.552V341.132C947.789 341.626 947.874 342.045 948.045 342.389C948.218 342.73 948.458 342.99 948.765 343.169C949.072 343.345 949.428 343.433 949.834 343.433C950.099 343.433 950.337 343.396 950.55 343.322C950.766 343.245 950.952 343.132 951.109 342.981C951.265 342.828 951.386 342.637 951.471 342.41L952.442 342.683C952.34 343.012 952.168 343.302 951.927 343.552C951.685 343.799 951.387 343.993 951.032 344.132C950.677 344.268 950.278 344.336 949.834 344.336ZM954.075 344.2V337.655H955.046V338.643H955.114C955.234 338.319 955.45 338.057 955.762 337.855C956.075 337.653 956.427 337.552 956.819 337.552C956.893 337.552 956.985 337.554 957.096 337.557C957.207 337.559 957.29 337.564 957.347 337.569V338.592C957.313 338.584 957.235 338.571 957.113 338.554C956.994 338.534 956.867 338.524 956.734 338.524C956.415 338.524 956.131 338.591 955.881 338.724C955.634 338.855 955.438 339.037 955.293 339.27C955.151 339.5 955.08 339.762 955.08 340.058V344.2H954.075ZM962.051 344.2V335.473H965C965.684 335.473 966.244 335.596 966.679 335.843C967.116 336.088 967.44 336.419 967.65 336.836C967.86 337.254 967.965 337.72 967.965 338.234C967.965 338.748 967.86 339.216 967.65 339.636C967.443 340.057 967.122 340.392 966.687 340.642C966.252 340.889 965.696 341.012 965.017 341.012H962.903V340.075H964.983C965.451 340.075 965.828 339.994 966.112 339.832C966.396 339.67 966.602 339.451 966.73 339.176C966.86 338.897 966.926 338.584 966.926 338.234C966.926 337.885 966.86 337.572 966.73 337.297C966.602 337.021 966.394 336.805 966.108 336.649C965.821 336.49 965.44 336.41 964.965 336.41H963.108V344.2H962.051ZM969.532 344.2V337.655H970.503V338.643H970.571C970.691 338.319 970.907 338.057 971.219 337.855C971.532 337.653 971.884 337.552 972.276 337.552C972.35 337.552 972.442 337.554 972.553 337.557C972.664 337.559 972.747 337.564 972.804 337.569V338.592C972.77 338.584 972.692 338.571 972.57 338.554C972.451 338.534 972.324 338.524 972.191 338.524C971.872 338.524 971.588 338.591 971.338 338.724C971.091 338.855 970.895 339.037 970.75 339.27C970.608 339.5 970.537 339.762 970.537 340.058V344.2H969.532ZM976.456 344.336C975.865 344.336 975.347 344.196 974.901 343.914C974.458 343.633 974.111 343.24 973.861 342.734C973.614 342.228 973.49 341.637 973.49 340.961C973.49 340.28 973.614 339.684 973.861 339.176C974.111 338.667 974.458 338.272 974.901 337.991C975.347 337.71 975.865 337.569 976.456 337.569C977.047 337.569 977.564 337.71 978.007 337.991C978.453 338.272 978.8 338.667 979.047 339.176C979.297 339.684 979.422 340.28 979.422 340.961C979.422 341.637 979.297 342.228 979.047 342.734C978.8 343.24 978.453 343.633 978.007 343.914C977.564 344.196 977.047 344.336 976.456 344.336ZM976.456 343.433C976.905 343.433 977.274 343.318 977.564 343.088C977.854 342.858 978.068 342.555 978.208 342.18C978.347 341.805 978.416 341.399 978.416 340.961C978.416 340.524 978.347 340.116 978.208 339.738C978.068 339.361 977.854 339.055 977.564 338.822C977.274 338.589 976.905 338.473 976.456 338.473C976.007 338.473 975.638 338.589 975.348 338.822C975.059 339.055 974.844 339.361 974.705 339.738C974.566 340.116 974.496 340.524 974.496 340.961C974.496 341.399 974.566 341.805 974.705 342.18C974.844 342.555 975.059 342.858 975.348 343.088C975.638 343.318 976.007 343.433 976.456 343.433ZM983.616 344.336C983.003 344.336 982.474 344.191 982.031 343.902C981.588 343.612 981.247 343.213 981.008 342.704C980.77 342.196 980.651 341.615 980.651 340.961C980.651 340.297 980.773 339.71 981.017 339.201C981.264 338.69 981.608 338.291 982.048 338.004C982.491 337.714 983.008 337.569 983.599 337.569C984.06 337.569 984.474 337.655 984.844 337.825C985.213 337.995 985.516 338.234 985.751 338.541C985.987 338.848 986.133 339.206 986.19 339.615H985.185C985.108 339.316 984.937 339.052 984.673 338.822C984.412 338.589 984.06 338.473 983.616 338.473C983.224 338.473 982.881 338.575 982.585 338.78C982.293 338.981 982.064 339.267 981.899 339.636C981.737 340.003 981.656 340.433 981.656 340.927C981.656 341.433 981.736 341.873 981.895 342.248C982.057 342.623 982.284 342.914 982.577 343.122C982.872 343.329 983.219 343.433 983.616 343.433C983.878 343.433 984.115 343.387 984.328 343.297C984.541 343.206 984.722 343.075 984.869 342.905C985.017 342.734 985.122 342.53 985.185 342.291H986.19C986.133 342.677 985.993 343.025 985.768 343.335C985.547 343.642 985.253 343.886 984.886 344.068C984.523 344.247 984.099 344.336 983.616 344.336ZM990.405 344.336C989.774 344.336 989.23 344.197 988.773 343.919C988.318 343.637 987.967 343.245 987.72 342.743C987.476 342.237 987.354 341.649 987.354 340.978C987.354 340.308 987.476 339.717 987.72 339.206C987.967 338.691 988.311 338.291 988.751 338.004C989.195 337.714 989.712 337.569 990.302 337.569C990.643 337.569 990.98 337.626 991.312 337.74C991.645 337.853 991.947 338.038 992.22 338.294C992.493 338.547 992.71 338.882 992.872 339.299C993.034 339.717 993.115 340.231 993.115 340.842V341.268H988.07V340.399H992.092C992.092 340.03 992.018 339.7 991.871 339.41C991.726 339.12 991.518 338.892 991.249 338.724C990.981 338.557 990.666 338.473 990.302 338.473C989.902 338.473 989.555 338.572 989.263 338.771C988.973 338.967 988.75 339.223 988.594 339.538C988.437 339.853 988.359 340.191 988.359 340.552V341.132C988.359 341.626 988.445 342.045 988.615 342.389C988.788 342.73 989.028 342.99 989.335 343.169C989.642 343.345 989.999 343.433 990.405 343.433C990.669 343.433 990.908 343.396 991.121 343.322C991.337 343.245 991.523 343.132 991.679 342.981C991.835 342.828 991.956 342.637 992.041 342.41L993.013 342.683C992.91 343.012 992.739 343.302 992.497 343.552C992.256 343.799 991.957 343.993 991.602 344.132C991.247 344.268 990.848 344.336 990.405 344.336ZM999.281 339.12L998.378 339.376C998.321 339.226 998.237 339.079 998.126 338.937C998.018 338.792 997.871 338.673 997.683 338.579C997.496 338.486 997.256 338.439 996.963 338.439C996.562 338.439 996.229 338.531 995.962 338.716C995.697 338.897 995.565 339.129 995.565 339.41C995.565 339.66 995.656 339.858 995.838 340.003C996.02 340.147 996.304 340.268 996.69 340.365L997.662 340.603C998.247 340.745 998.683 340.963 998.97 341.255C999.257 341.545 999.401 341.919 999.401 342.376C999.401 342.751 999.293 343.086 999.077 343.382C998.864 343.677 998.565 343.91 998.182 344.081C997.798 344.251 997.352 344.336 996.844 344.336C996.176 344.336 995.624 344.191 995.186 343.902C994.749 343.612 994.472 343.189 994.355 342.632L995.31 342.393C995.401 342.745 995.572 343.01 995.825 343.186C996.081 343.362 996.415 343.45 996.827 343.45C997.295 343.45 997.668 343.351 997.943 343.152C998.222 342.95 998.361 342.709 998.361 342.427C998.361 342.2 998.281 342.01 998.122 341.856C997.963 341.7 997.719 341.584 997.389 341.507L996.298 341.251C995.699 341.109 995.258 340.889 994.977 340.591C994.699 340.289 994.56 339.913 994.56 339.461C994.56 339.092 994.663 338.765 994.871 338.481C995.081 338.197 995.366 337.974 995.727 337.812C996.091 337.65 996.503 337.569 996.963 337.569C997.611 337.569 998.119 337.711 998.489 337.995C998.861 338.28 999.125 338.655 999.281 339.12ZM1005.55 339.12L1004.65 339.376C1004.59 339.226 1004.51 339.079 1004.4 338.937C1004.29 338.792 1004.14 338.673 1003.95 338.579C1003.77 338.486 1003.53 338.439 1003.23 338.439C1002.83 338.439 1002.5 338.531 1002.23 338.716C1001.97 338.897 1001.83 339.129 1001.83 339.41C1001.83 339.66 1001.93 339.858 1002.11 340.003C1002.29 340.147 1002.57 340.268 1002.96 340.365L1003.93 340.603C1004.52 340.745 1004.95 340.963 1005.24 341.255C1005.53 341.545 1005.67 341.919 1005.67 342.376C1005.67 342.751 1005.56 343.086 1005.35 343.382C1005.13 343.677 1004.83 343.91 1004.45 344.081C1004.07 344.251 1003.62 344.336 1003.11 344.336C1002.45 344.336 1001.89 344.191 1001.46 343.902C1001.02 343.612 1000.74 343.189 1000.62 342.632L1001.58 342.393C1001.67 342.745 1001.84 343.01 1002.09 343.186C1002.35 343.362 1002.68 343.45 1003.1 343.45C1003.56 343.45 1003.94 343.351 1004.21 343.152C1004.49 342.95 1004.63 342.709 1004.63 342.427C1004.63 342.2 1004.55 342.01 1004.39 341.856C1004.23 341.7 1003.99 341.584 1003.66 341.507L1002.57 341.251C1001.97 341.109 1001.53 340.889 1001.25 340.591C1000.97 340.289 1000.83 339.913 1000.83 339.461C1000.83 339.092 1000.93 338.765 1001.14 338.481C1001.35 338.197 1001.64 337.974 1002 337.812C1002.36 337.65 1002.77 337.569 1003.23 337.569C1003.88 337.569 1004.39 337.711 1004.76 337.995C1005.13 338.28 1005.39 338.655 1005.55 339.12ZM1009.93 344.336C1009.3 344.336 1008.75 344.197 1008.3 343.919C1007.84 343.637 1007.49 343.245 1007.24 342.743C1007 342.237 1006.88 341.649 1006.88 340.978C1006.88 340.308 1007 339.717 1007.24 339.206C1007.49 338.691 1007.83 338.291 1008.27 338.004C1008.72 337.714 1009.24 337.569 1009.83 337.569C1010.17 337.569 1010.5 337.626 1010.84 337.74C1011.17 337.853 1011.47 338.038 1011.74 338.294C1012.02 338.547 1012.23 338.882 1012.4 339.299C1012.56 339.717 1012.64 340.231 1012.64 340.842V341.268H1007.59V340.399H1011.62C1011.62 340.03 1011.54 339.7 1011.39 339.41C1011.25 339.12 1011.04 338.892 1010.77 338.724C1010.5 338.557 1010.19 338.473 1009.83 338.473C1009.43 338.473 1009.08 338.572 1008.79 338.771C1008.5 338.967 1008.27 339.223 1008.12 339.538C1007.96 339.853 1007.88 340.191 1007.88 340.552V341.132C1007.88 341.626 1007.97 342.045 1008.14 342.389C1008.31 342.73 1008.55 342.99 1008.86 343.169C1009.17 343.345 1009.52 343.433 1009.93 343.433C1010.19 343.433 1010.43 343.396 1010.64 343.322C1010.86 343.245 1011.05 343.132 1011.2 342.981C1011.36 342.828 1011.48 342.637 1011.56 342.41L1012.54 342.683C1012.43 343.012 1012.26 343.302 1012.02 343.552C1011.78 343.799 1011.48 343.993 1011.13 344.132C1010.77 344.268 1010.37 344.336 1009.93 344.336ZM1018.8 339.12L1017.9 339.376C1017.84 339.226 1017.76 339.079 1017.65 338.937C1017.54 338.792 1017.39 338.673 1017.21 338.579C1017.02 338.486 1016.78 338.439 1016.49 338.439C1016.09 338.439 1015.75 338.531 1015.49 338.716C1015.22 338.897 1015.09 339.129 1015.09 339.41C1015.09 339.66 1015.18 339.858 1015.36 340.003C1015.54 340.147 1015.83 340.268 1016.21 340.365L1017.19 340.603C1017.77 340.745 1018.21 340.963 1018.49 341.255C1018.78 341.545 1018.92 341.919 1018.92 342.376C1018.92 342.751 1018.82 343.086 1018.6 343.382C1018.39 343.677 1018.09 343.91 1017.71 344.081C1017.32 344.251 1016.88 344.336 1016.37 344.336C1015.7 344.336 1015.15 344.191 1014.71 343.902C1014.27 343.612 1013.99 343.189 1013.88 342.632L1014.83 342.393C1014.92 342.745 1015.1 343.01 1015.35 343.186C1015.6 343.362 1015.94 343.45 1016.35 343.45C1016.82 343.45 1017.19 343.351 1017.47 343.152C1017.74 342.95 1017.88 342.709 1017.88 342.427C1017.88 342.2 1017.8 342.01 1017.65 341.856C1017.49 341.7 1017.24 341.584 1016.91 341.507L1015.82 341.251C1015.22 341.109 1014.78 340.889 1014.5 340.591C1014.22 340.289 1014.08 339.913 1014.08 339.461C1014.08 339.092 1014.19 338.765 1014.39 338.481C1014.6 338.197 1014.89 337.974 1015.25 337.812C1015.61 337.65 1016.03 337.569 1016.49 337.569C1017.13 337.569 1017.64 337.711 1018.01 337.995C1018.38 338.28 1018.65 338.655 1018.8 339.12Z" fill="black"/>
<path d="M630 330V627" stroke="white" stroke-width="2"/>
<path d="M581.211 646.6V637.873H582.268V641.759H586.921V637.873H587.978V646.6H586.921V642.697H582.268V646.6H581.211ZM589.958 646.6V640.055H590.963V646.6H589.958ZM590.469 638.964C590.273 638.964 590.104 638.897 589.962 638.763C589.823 638.63 589.753 638.469 589.753 638.282C589.753 638.094 589.823 637.934 589.962 637.8C590.104 637.667 590.273 637.6 590.469 637.6C590.665 637.6 590.833 637.667 590.972 637.8C591.114 637.934 591.185 638.094 591.185 638.282C591.185 638.469 591.114 638.63 590.972 638.763C590.833 638.897 590.665 638.964 590.469 638.964ZM595.447 649.191C594.962 649.191 594.544 649.128 594.195 649.003C593.845 648.881 593.554 648.719 593.321 648.518C593.091 648.319 592.908 648.106 592.771 647.878L593.572 647.316C593.663 647.435 593.778 647.572 593.918 647.725C594.057 647.881 594.247 648.016 594.489 648.13C594.733 648.246 595.053 648.305 595.447 648.305C595.976 648.305 596.412 648.177 596.756 647.921C597.099 647.665 597.271 647.265 597.271 646.719V645.39H597.186C597.112 645.509 597.007 645.657 596.871 645.833C596.737 646.006 596.544 646.161 596.291 646.297C596.041 646.431 595.703 646.498 595.277 646.498C594.749 646.498 594.274 646.373 593.854 646.123C593.436 645.873 593.105 645.509 592.861 645.032C592.619 644.555 592.499 643.975 592.499 643.293C592.499 642.623 592.616 642.039 592.852 641.542C593.088 641.042 593.416 640.655 593.837 640.383C594.257 640.107 594.743 639.969 595.294 639.969C595.72 639.969 596.058 640.04 596.308 640.182C596.561 640.322 596.754 640.481 596.888 640.66C597.024 640.836 597.129 640.981 597.203 641.094H597.305V640.055H598.277V646.787C598.277 647.35 598.149 647.807 597.893 648.16C597.641 648.515 597.3 648.775 596.871 648.939C596.445 649.107 595.97 649.191 595.447 649.191ZM595.413 645.594C595.817 645.594 596.158 645.502 596.436 645.317C596.714 645.133 596.926 644.867 597.071 644.52C597.216 644.174 597.288 643.759 597.288 643.276C597.288 642.805 597.217 642.388 597.075 642.028C596.933 641.667 596.723 641.384 596.445 641.18C596.166 640.975 595.822 640.873 595.413 640.873C594.987 640.873 594.632 640.981 594.348 641.197C594.067 641.412 593.855 641.702 593.713 642.066C593.574 642.43 593.504 642.833 593.504 643.276C593.504 643.731 593.575 644.133 593.717 644.482C593.862 644.829 594.075 645.101 594.356 645.3C594.641 645.496 594.993 645.594 595.413 645.594ZM601.124 642.662V646.6H600.118V637.873H601.124V641.077H601.209C601.362 640.739 601.592 640.471 601.899 640.272C602.209 640.07 602.621 639.969 603.135 639.969C603.581 639.969 603.972 640.059 604.307 640.238C604.642 640.414 604.902 640.685 605.087 641.052C605.274 641.415 605.368 641.878 605.368 642.441V646.6H604.362V642.509C604.362 641.989 604.227 641.587 603.957 641.303C603.69 641.016 603.32 640.873 602.845 640.873C602.516 640.873 602.22 640.942 601.959 641.082C601.7 641.221 601.496 641.424 601.345 641.691C601.197 641.958 601.124 642.282 601.124 642.662ZM608.691 646.6L606.696 640.055H607.753L609.168 645.066H609.236L610.634 640.055H611.708L613.088 645.049H613.157L614.571 640.055H615.628L613.634 646.6H612.645L611.213 641.572H611.111L609.679 646.6H608.691ZM618.884 646.753C618.469 646.753 618.093 646.675 617.755 646.519C617.416 646.36 617.148 646.131 616.949 645.833C616.75 645.532 616.651 645.168 616.651 644.742C616.651 644.367 616.725 644.063 616.872 643.83C617.02 643.594 617.218 643.41 617.465 643.276C617.712 643.143 617.985 643.043 618.283 642.978C618.584 642.91 618.887 642.856 619.191 642.816C619.588 642.765 619.911 642.726 620.158 642.701C620.408 642.672 620.59 642.626 620.703 642.56C620.82 642.495 620.878 642.381 620.878 642.219V642.185C620.878 641.765 620.763 641.438 620.533 641.205C620.306 640.972 619.961 640.856 619.497 640.856C619.017 640.856 618.641 640.961 618.368 641.171C618.095 641.381 617.904 641.606 617.793 641.844L616.838 641.503C617.009 641.106 617.236 640.796 617.52 640.574C617.807 640.35 618.12 640.194 618.458 640.106C618.799 640.015 619.134 639.969 619.463 639.969C619.674 639.969 619.915 639.995 620.188 640.046C620.463 640.094 620.729 640.195 620.985 640.349C621.243 640.502 621.458 640.733 621.628 641.043C621.799 641.353 621.884 641.768 621.884 642.287V646.6H620.878V645.714H620.827C620.759 645.856 620.645 646.008 620.486 646.17C620.327 646.332 620.115 646.469 619.851 646.583C619.587 646.697 619.265 646.753 618.884 646.753ZM619.037 645.85C619.435 645.85 619.77 645.772 620.043 645.616C620.318 645.459 620.526 645.258 620.665 645.01C620.807 644.763 620.878 644.503 620.878 644.231V643.31C620.836 643.361 620.742 643.408 620.597 643.451C620.455 643.491 620.29 643.526 620.103 643.557C619.918 643.586 619.738 643.611 619.561 643.634C619.388 643.654 619.247 643.671 619.14 643.685C618.878 643.719 618.634 643.775 618.407 643.851C618.182 643.925 618 644.037 617.861 644.188C617.725 644.336 617.657 644.537 617.657 644.793C617.657 645.143 617.786 645.407 618.044 645.586C618.306 645.762 618.637 645.85 619.037 645.85ZM624.133 649.055C623.962 649.055 623.81 649.04 623.677 649.012C623.543 648.986 623.451 648.961 623.4 648.935L623.655 648.049C623.9 648.111 624.116 648.134 624.303 648.117C624.491 648.1 624.657 648.016 624.802 647.866C624.95 647.718 625.084 647.478 625.207 647.145L625.394 646.634L622.974 640.055H624.065L625.871 645.27H625.94L627.746 640.055H628.837L626.059 647.555C625.934 647.893 625.779 648.172 625.594 648.394C625.41 648.618 625.195 648.785 624.951 648.893C624.709 649.001 624.437 649.055 624.133 649.055ZM634.034 637.873L636.625 645.219H636.727L639.318 637.873H640.426L637.222 646.6H636.131L632.926 637.873H634.034ZM643.784 646.736C643.153 646.736 642.609 646.597 642.152 646.319C641.697 646.037 641.347 645.645 641.099 645.143C640.855 644.637 640.733 644.049 640.733 643.378C640.733 642.708 640.855 642.117 641.099 641.606C641.347 641.091 641.69 640.691 642.131 640.404C642.574 640.114 643.091 639.969 643.682 639.969C644.023 639.969 644.359 640.026 644.692 640.14C645.024 640.253 645.327 640.438 645.599 640.694C645.872 640.947 646.089 641.282 646.251 641.699C646.413 642.117 646.494 642.631 646.494 643.242V643.668H641.449V642.799H645.472C645.472 642.43 645.398 642.1 645.25 641.81C645.105 641.52 644.898 641.292 644.628 641.124C644.361 640.957 644.045 640.873 643.682 640.873C643.281 640.873 642.935 640.972 642.642 641.171C642.352 641.367 642.129 641.623 641.973 641.938C641.817 642.253 641.739 642.591 641.739 642.952V643.532C641.739 644.026 641.824 644.445 641.994 644.789C642.168 645.13 642.408 645.39 642.714 645.569C643.021 645.745 643.378 645.833 643.784 645.833C644.048 645.833 644.287 645.796 644.5 645.722C644.716 645.645 644.902 645.532 645.058 645.381C645.214 645.228 645.335 645.037 645.42 644.81L646.392 645.083C646.29 645.412 646.118 645.702 645.876 645.952C645.635 646.199 645.337 646.393 644.981 646.532C644.626 646.668 644.227 646.736 643.784 646.736ZM649.03 642.662V646.6H648.024V637.873H649.03V641.077H649.115C649.268 640.739 649.499 640.471 649.805 640.272C650.115 640.07 650.527 639.969 651.041 639.969C651.487 639.969 651.878 640.059 652.213 640.238C652.548 640.414 652.808 640.685 652.993 641.052C653.18 641.415 653.274 641.878 653.274 642.441V646.6H652.268V642.509C652.268 641.989 652.133 641.587 651.864 641.303C651.597 641.016 651.226 640.873 650.751 640.873C650.422 640.873 650.126 640.942 649.865 641.082C649.606 641.221 649.402 641.424 649.251 641.691C649.104 641.958 649.03 642.282 649.03 642.662ZM655.114 646.6V640.055H656.12V646.6H655.114ZM655.625 638.964C655.429 638.964 655.26 638.897 655.118 638.763C654.979 638.63 654.909 638.469 654.909 638.282C654.909 638.094 654.979 637.934 655.118 637.8C655.26 637.667 655.429 637.6 655.625 637.6C655.821 637.6 655.989 637.667 656.128 637.8C656.27 637.934 656.341 638.094 656.341 638.282C656.341 638.469 656.27 638.63 656.128 638.763C655.989 638.897 655.821 638.964 655.625 638.964ZM660.621 646.736C660.007 646.736 659.479 646.591 659.035 646.302C658.592 646.012 658.251 645.613 658.013 645.104C657.774 644.596 657.655 644.015 657.655 643.361C657.655 642.697 657.777 642.11 658.021 641.601C658.268 641.09 658.612 640.691 659.053 640.404C659.496 640.114 660.013 639.969 660.604 639.969C661.064 639.969 661.479 640.055 661.848 640.225C662.217 640.395 662.52 640.634 662.756 640.941C662.991 641.248 663.138 641.606 663.195 642.015H662.189C662.112 641.716 661.942 641.452 661.678 641.222C661.416 640.989 661.064 640.873 660.621 640.873C660.229 640.873 659.885 640.975 659.589 641.18C659.297 641.381 659.068 641.667 658.903 642.036C658.741 642.403 658.66 642.833 658.66 643.327C658.66 643.833 658.74 644.273 658.899 644.648C659.061 645.023 659.288 645.314 659.581 645.522C659.876 645.729 660.223 645.833 660.621 645.833C660.882 645.833 661.119 645.787 661.332 645.697C661.545 645.606 661.726 645.475 661.874 645.305C662.021 645.134 662.126 644.93 662.189 644.691H663.195C663.138 645.077 662.997 645.425 662.773 645.735C662.551 646.042 662.257 646.286 661.891 646.468C661.527 646.647 661.104 646.736 660.621 646.736ZM665.67 637.873V646.6H664.665V637.873H665.67ZM670.257 646.736C669.626 646.736 669.082 646.597 668.625 646.319C668.17 646.037 667.819 645.645 667.572 645.143C667.328 644.637 667.206 644.049 667.206 643.378C667.206 642.708 667.328 642.117 667.572 641.606C667.819 641.091 668.163 640.691 668.603 640.404C669.046 640.114 669.564 639.969 670.154 639.969C670.495 639.969 670.832 640.026 671.164 640.14C671.497 640.253 671.799 640.438 672.072 640.694C672.345 640.947 672.562 641.282 672.724 641.699C672.886 642.117 672.967 642.631 672.967 643.242V643.668H667.921V642.799H671.944C671.944 642.43 671.87 642.1 671.723 641.81C671.578 641.52 671.37 641.292 671.1 641.124C670.833 640.957 670.518 640.873 670.154 640.873C669.754 640.873 669.407 640.972 669.115 641.171C668.825 641.367 668.602 641.623 668.446 641.938C668.289 642.253 668.211 642.591 668.211 642.952V643.532C668.211 644.026 668.296 644.445 668.467 644.789C668.64 645.13 668.88 645.39 669.187 645.569C669.494 645.745 669.85 645.833 670.257 645.833C670.521 645.833 670.76 645.796 670.973 645.722C671.189 645.645 671.375 645.532 671.531 645.381C671.687 645.228 671.808 645.037 671.893 644.81L672.865 645.083C672.762 645.412 672.59 645.702 672.349 645.952C672.108 646.199 671.809 646.393 671.454 646.532C671.099 646.668 670.7 646.736 670.257 646.736ZM679.133 641.52L678.23 641.776C678.173 641.626 678.089 641.479 677.978 641.337C677.87 641.192 677.723 641.073 677.535 640.979C677.348 640.885 677.108 640.839 676.815 640.839C676.414 640.839 676.081 640.931 675.814 641.116C675.549 641.297 675.417 641.529 675.417 641.81C675.417 642.06 675.508 642.258 675.69 642.403C675.872 642.547 676.156 642.668 676.542 642.765L677.514 643.003C678.099 643.145 678.535 643.363 678.822 643.655C679.109 643.945 679.252 644.319 679.252 644.776C679.252 645.151 679.144 645.486 678.929 645.782C678.715 646.077 678.417 646.31 678.034 646.481C677.65 646.651 677.204 646.736 676.696 646.736C676.028 646.736 675.475 646.591 675.038 646.302C674.6 646.012 674.323 645.589 674.207 645.032L675.162 644.793C675.252 645.145 675.424 645.41 675.677 645.586C675.933 645.762 676.267 645.85 676.679 645.85C677.147 645.85 677.519 645.751 677.795 645.552C678.073 645.35 678.213 645.108 678.213 644.827C678.213 644.6 678.133 644.41 677.974 644.256C677.815 644.1 677.571 643.983 677.241 643.907L676.15 643.651C675.551 643.509 675.11 643.289 674.829 642.991C674.551 642.689 674.412 642.313 674.412 641.861C674.412 641.492 674.515 641.165 674.723 640.881C674.933 640.597 675.218 640.374 675.579 640.212C675.943 640.05 676.355 639.969 676.815 639.969C677.463 639.969 677.971 640.111 678.34 640.395C678.713 640.68 678.977 641.055 679.133 641.52Z" fill="black"/>
<path d="M630 330L333 330" stroke="white" stroke-width="2"/>
<path d="M286.048 335.473V344.2H285.025L280.27 337.348H280.184V344.2H279.128V335.473H280.15L284.923 342.342H285.008V335.473H286.048ZM290.686 344.336C290.095 344.336 289.576 344.196 289.13 343.914C288.687 343.633 288.34 343.24 288.09 342.734C287.843 342.228 287.72 341.637 287.72 340.961C287.72 340.28 287.843 339.684 288.09 339.176C288.34 338.667 288.687 338.272 289.13 337.991C289.576 337.71 290.095 337.569 290.686 337.569C291.276 337.569 291.793 337.71 292.237 337.991C292.683 338.272 293.029 338.667 293.276 339.176C293.526 339.684 293.651 340.28 293.651 340.961C293.651 341.637 293.526 342.228 293.276 342.734C293.029 343.24 292.683 343.633 292.237 343.914C291.793 344.196 291.276 344.336 290.686 344.336ZM290.686 343.433C291.134 343.433 291.504 343.318 291.793 343.088C292.083 342.858 292.298 342.555 292.437 342.18C292.576 341.805 292.646 341.399 292.646 340.961C292.646 340.524 292.576 340.116 292.437 339.738C292.298 339.361 292.083 339.055 291.793 338.822C291.504 338.589 291.134 338.473 290.686 338.473C290.237 338.473 289.867 338.589 289.578 338.822C289.288 339.055 289.073 339.361 288.934 339.738C288.795 340.116 288.725 340.524 288.725 340.961C288.725 341.399 288.795 341.805 288.934 342.18C289.073 342.555 289.288 342.858 289.578 343.088C289.867 343.318 290.237 343.433 290.686 343.433ZM296.192 340.262V344.2H295.187V337.655H296.158V338.677H296.243C296.397 338.345 296.63 338.078 296.942 337.876C297.255 337.672 297.658 337.569 298.152 337.569C298.596 337.569 298.983 337.66 299.316 337.842C299.648 338.021 299.907 338.294 300.091 338.66C300.276 339.024 300.368 339.484 300.368 340.041V344.2H299.363V340.109C299.363 339.595 299.229 339.194 298.962 338.907C298.695 338.618 298.329 338.473 297.863 338.473C297.542 338.473 297.255 338.542 297.002 338.682C296.752 338.821 296.554 339.024 296.41 339.291C296.265 339.558 296.192 339.882 296.192 340.262ZM305.956 339.99V340.927H302.138V339.99H305.956ZM307.862 344.2V335.473H310.811C311.493 335.473 312.052 335.589 312.49 335.822C312.927 336.052 313.251 336.369 313.461 336.772C313.672 337.176 313.777 337.635 313.777 338.149C313.777 338.663 313.672 339.119 313.461 339.517C313.251 339.914 312.929 340.227 312.494 340.454C312.059 340.679 311.504 340.791 310.828 340.791H308.442V339.836H310.794C311.26 339.836 311.635 339.768 311.919 339.632C312.206 339.495 312.413 339.302 312.541 339.052C312.672 338.799 312.737 338.498 312.737 338.149C312.737 337.799 312.672 337.494 312.541 337.233C312.41 336.971 312.201 336.77 311.915 336.628C311.628 336.483 311.248 336.41 310.777 336.41H308.919V344.2H307.862ZM311.97 340.28L314.118 344.2H312.89L310.777 340.28H311.97ZM317.99 344.336C317.399 344.336 316.881 344.196 316.435 343.914C315.992 343.633 315.645 343.24 315.395 342.734C315.148 342.228 315.024 341.637 315.024 340.961C315.024 340.28 315.148 339.684 315.395 339.176C315.645 338.667 315.992 338.272 316.435 337.991C316.881 337.71 317.399 337.569 317.99 337.569C318.581 337.569 319.098 337.71 319.541 337.991C319.987 338.272 320.334 338.667 320.581 339.176C320.831 339.684 320.956 340.28 320.956 340.961C320.956 341.637 320.831 342.228 320.581 342.734C320.334 343.24 319.987 343.633 319.541 343.914C319.098 344.196 318.581 344.336 317.99 344.336ZM317.99 343.433C318.439 343.433 318.808 343.318 319.098 343.088C319.388 342.858 319.602 342.555 319.742 342.18C319.881 341.805 319.95 341.399 319.95 340.961C319.95 340.524 319.881 340.116 319.742 339.738C319.602 339.361 319.388 339.055 319.098 338.822C318.808 338.589 318.439 338.473 317.99 338.473C317.541 338.473 317.172 338.589 316.882 338.822C316.592 339.055 316.378 339.361 316.239 339.738C316.1 340.116 316.03 340.524 316.03 340.961C316.03 341.399 316.1 341.805 316.239 342.18C316.378 342.555 316.592 342.858 316.882 343.088C317.172 343.318 317.541 343.433 317.99 343.433ZM324.417 344.353C324.003 344.353 323.626 344.275 323.288 344.119C322.95 343.96 322.682 343.731 322.483 343.433C322.284 343.132 322.184 342.768 322.184 342.342C322.184 341.967 322.258 341.663 322.406 341.43C322.554 341.194 322.751 341.01 322.998 340.876C323.246 340.743 323.518 340.643 323.817 340.578C324.118 340.51 324.42 340.456 324.724 340.416C325.122 340.365 325.444 340.326 325.692 340.301C325.942 340.272 326.123 340.226 326.237 340.16C326.353 340.095 326.412 339.981 326.412 339.819V339.785C326.412 339.365 326.297 339.038 326.067 338.805C325.839 338.572 325.494 338.456 325.031 338.456C324.551 338.456 324.174 338.561 323.902 338.771C323.629 338.981 323.437 339.206 323.326 339.444L322.372 339.103C322.542 338.706 322.77 338.396 323.054 338.174C323.341 337.95 323.653 337.794 323.991 337.706C324.332 337.615 324.667 337.569 324.997 337.569C325.207 337.569 325.449 337.595 325.721 337.646C325.997 337.694 326.263 337.795 326.518 337.949C326.777 338.102 326.991 338.334 327.162 338.643C327.332 338.953 327.417 339.368 327.417 339.887V344.2H326.412V343.314H326.361C326.292 343.456 326.179 343.608 326.02 343.77C325.861 343.932 325.649 344.069 325.385 344.183C325.121 344.297 324.798 344.353 324.417 344.353ZM324.571 343.45C324.969 343.45 325.304 343.372 325.576 343.216C325.852 343.059 326.059 342.858 326.199 342.611C326.341 342.363 326.412 342.103 326.412 341.831V340.91C326.369 340.961 326.275 341.008 326.13 341.051C325.988 341.091 325.824 341.126 325.636 341.157C325.451 341.186 325.271 341.211 325.095 341.234C324.922 341.254 324.781 341.271 324.673 341.285C324.412 341.319 324.167 341.375 323.94 341.451C323.716 341.525 323.534 341.637 323.395 341.788C323.258 341.936 323.19 342.137 323.19 342.393C323.19 342.743 323.319 343.007 323.578 343.186C323.839 343.362 324.17 343.45 324.571 343.45ZM331.725 344.336C331.179 344.336 330.698 344.199 330.28 343.923C329.862 343.645 329.536 343.253 329.3 342.747C329.064 342.238 328.946 341.637 328.946 340.944C328.946 340.257 329.064 339.66 329.3 339.155C329.536 338.649 329.864 338.258 330.284 337.983C330.705 337.707 331.19 337.569 331.742 337.569C332.168 337.569 332.504 337.64 332.752 337.782C333.002 337.922 333.192 338.081 333.323 338.26C333.456 338.436 333.56 338.581 333.634 338.694H333.719V335.473H334.725V344.2H333.753V343.194H333.634C333.56 343.314 333.455 343.464 333.318 343.646C333.182 343.825 332.987 343.986 332.735 344.128C332.482 344.267 332.145 344.336 331.725 344.336ZM331.861 343.433C332.264 343.433 332.605 343.328 332.884 343.118C333.162 342.905 333.374 342.611 333.519 342.236C333.663 341.858 333.736 341.422 333.736 340.927C333.736 340.439 333.665 340.011 333.523 339.645C333.381 339.275 333.171 338.988 332.892 338.784C332.614 338.576 332.27 338.473 331.861 338.473C331.435 338.473 331.08 338.582 330.796 338.801C330.514 339.017 330.303 339.311 330.161 339.683C330.021 340.052 329.952 340.467 329.952 340.927C329.952 341.393 330.023 341.816 330.165 342.197C330.31 342.575 330.523 342.876 330.804 343.101C331.088 343.322 331.44 343.433 331.861 343.433ZM340.217 335.473H341.479L344.445 342.717H344.547L347.513 335.473H348.774V344.2H347.786V337.569H347.7L344.973 344.2H344.019L341.291 337.569H341.206V344.2H340.217V335.473ZM353.416 344.336C352.825 344.336 352.307 344.196 351.861 343.914C351.417 343.633 351.071 343.24 350.821 342.734C350.574 342.228 350.45 341.637 350.45 340.961C350.45 340.28 350.574 339.684 350.821 339.176C351.071 338.667 351.417 338.272 351.861 337.991C352.307 337.71 352.825 337.569 353.416 337.569C354.007 337.569 354.524 337.71 354.967 337.991C355.413 338.272 355.76 338.667 356.007 339.176C356.257 339.684 356.382 340.28 356.382 340.961C356.382 341.637 356.257 342.228 356.007 342.734C355.76 343.24 355.413 343.633 354.967 343.914C354.524 344.196 354.007 344.336 353.416 344.336ZM353.416 343.433C353.865 343.433 354.234 343.318 354.524 343.088C354.814 342.858 355.028 342.555 355.167 342.18C355.307 341.805 355.376 341.399 355.376 340.961C355.376 340.524 355.307 340.116 355.167 339.738C355.028 339.361 354.814 339.055 354.524 338.822C354.234 338.589 353.865 338.473 353.416 338.473C352.967 338.473 352.598 338.589 352.308 338.822C352.018 339.055 351.804 339.361 351.665 339.738C351.525 340.116 351.456 340.524 351.456 340.961C351.456 341.399 351.525 341.805 351.665 342.18C351.804 342.555 352.018 342.858 352.308 343.088C352.598 343.318 352.967 343.433 353.416 343.433ZM358.053 344.2V335.473H359.059V338.694H359.144C359.218 338.581 359.32 338.436 359.451 338.26C359.585 338.081 359.775 337.922 360.022 337.782C360.272 337.64 360.61 337.569 361.036 337.569C361.587 337.569 362.073 337.707 362.494 337.983C362.914 338.258 363.242 338.649 363.478 339.155C363.714 339.66 363.832 340.257 363.832 340.944C363.832 341.637 363.714 342.238 363.478 342.747C363.242 343.253 362.916 343.645 362.498 343.923C362.08 344.199 361.599 344.336 361.053 344.336C360.633 344.336 360.296 344.267 360.043 344.128C359.791 343.986 359.596 343.825 359.46 343.646C359.323 343.464 359.218 343.314 359.144 343.194H359.025V344.2H358.053ZM359.042 340.927C359.042 341.422 359.114 341.858 359.259 342.236C359.404 342.611 359.616 342.905 359.894 343.118C360.173 343.328 360.514 343.433 360.917 343.433C361.337 343.433 361.688 343.322 361.97 343.101C362.254 342.876 362.467 342.575 362.609 342.197C362.754 341.816 362.826 341.393 362.826 340.927C362.826 340.467 362.755 340.052 362.613 339.683C362.474 339.311 362.262 339.017 361.978 338.801C361.697 338.582 361.343 338.473 360.917 338.473C360.508 338.473 360.164 338.576 359.886 338.784C359.607 338.988 359.397 339.275 359.255 339.645C359.113 340.011 359.042 340.439 359.042 340.927ZM365.37 344.2V337.655H366.376V344.2H365.37ZM365.882 336.564C365.686 336.564 365.516 336.497 365.374 336.363C365.235 336.23 365.166 336.069 365.166 335.882C365.166 335.694 365.235 335.534 365.374 335.4C365.516 335.267 365.686 335.2 365.882 335.2C366.078 335.2 366.245 335.267 366.384 335.4C366.526 335.534 366.597 335.694 366.597 335.882C366.597 336.069 366.526 336.23 366.384 336.363C366.245 336.497 366.078 336.564 365.882 336.564ZM369.223 335.473V344.2H368.218V335.473H369.223ZM373.81 344.336C373.179 344.336 372.635 344.197 372.178 343.919C371.723 343.637 371.372 343.245 371.125 342.743C370.881 342.237 370.759 341.649 370.759 340.978C370.759 340.308 370.881 339.717 371.125 339.206C371.372 338.691 371.716 338.291 372.156 338.004C372.6 337.714 373.117 337.569 373.708 337.569C374.048 337.569 374.385 337.626 374.717 337.74C375.05 337.853 375.352 338.038 375.625 338.294C375.898 338.547 376.115 338.882 376.277 339.299C376.439 339.717 376.52 340.231 376.52 340.842V341.268H371.475V340.399H375.497C375.497 340.03 375.423 339.7 375.276 339.41C375.131 339.12 374.923 338.892 374.654 338.724C374.386 338.557 374.071 338.473 373.708 338.473C373.307 338.473 372.96 338.572 372.668 338.771C372.378 338.967 372.155 339.223 371.999 339.538C371.842 339.853 371.764 340.191 371.764 340.552V341.132C371.764 341.626 371.85 342.045 372.02 342.389C372.193 342.73 372.433 342.99 372.74 343.169C373.047 343.345 373.404 343.433 373.81 343.433C374.074 343.433 374.313 343.396 374.526 343.322C374.742 343.245 374.928 343.132 375.084 342.981C375.24 342.828 375.361 342.637 375.446 342.41L376.418 342.683C376.315 343.012 376.144 343.302 375.902 343.552C375.661 343.799 375.362 343.993 375.007 344.132C374.652 344.268 374.253 344.336 373.81 344.336Z" fill="black"/>
<path d="M825.05 330C825.05 337.089 667.912 362.159 630 362.159C592.089 362.159 597.582 337.089 597.582 330C597.582 322.911 592.089 319.627 630 319.627C667.912 319.627 825.05 322.911 825.05 330Z" fill="#3B77AF" fill-opacity="0.1" stroke="#3B77AF" stroke-width="2"/>
<path d="M630 322.627C631.657 322.627 633 321.284 633 319.627C633 317.97 631.657 316.627 630 316.627C628.343 316.627 627 317.97 627 319.627C627 321.284 628.343 322.627 630 322.627Z" fill="#3B77AF" fill-opacity="0.8"/>
<path d="M825.05 333C826.707 333 828.05 331.657 828.05 330C828.05 328.343 826.707 327 825.05 327C823.393 327 822.05 328.343 822.05 330C822.05 331.657 823.393 333 825.05 333Z" fill="#3B77AF" fill-opacity="0.8"/>
<path d="M630 365.159C631.657 365.159 633 363.815 633 362.159C633 360.502 631.657 359.159 630 359.159C628.343 359.159 627 360.502 627 362.159C627 363.815 628.343 365.159 630 365.159Z" fill="#3B77AF" fill-opacity="0.8"/>
<path d="M597.582 333C599.239 333 600.582 331.657 600.582 330C600.582 328.343 599.239 327 597.582 327C595.925 327 594.582 328.343 594.582 330C594.582 331.657 595.925 333 597.582 333Z" fill="#3B77AF" fill-opacity="0.8"/>
<path d="M692.027 330C692.027 363.497 641.503 332.736 630 332.736C618.497 332.736 623.007 363.497 623.007 330C623.007 296.503 618.497 131.757 630 131.757C641.503 131.757 692.027 296.503 692.027 330Z" fill="#EF8532" fill-opacity="0.1" stroke="#EF8532" stroke-width="2"/>
<path d="M630 134.757C631.657 134.757 633 133.414 633 131.757C633 130.1 631.657 128.757 630 128.757C628.343 128.757 627 130.1 627 131.757C627 133.414 628.343 134.757 630 134.757Z" fill="#EF8532" fill-opacity="0.8"/>
<path d="M692.027 333C693.684 333 695.027 331.657 695.027 330C695.027 328.343 693.684 327 692.027 327C690.37 327 689.027 328.343 689.027 330C689.027 331.657 690.37 333 692.027 333Z" fill="#EF8532" fill-opacity="0.8"/>
<path d="M630 335.736C631.657 335.736 633 334.393 633 332.736C633 331.08 631.657 329.736 630 329.736C628.343 329.736 627 331.08 627 332.736C627 334.393 628.343 335.736 630 335.736Z" fill="#EF8532" fill-opacity="0.8"/>
<path d="M623.007 333C624.664 333 626.007 331.657 626.007 330C626.007 328.343 624.664 327 623.007 327C621.35 327 620.007 328.343 620.007 330C620.007 331.657 621.35 333 623.007 333Z" fill="#EF8532" fill-opacity="0.8"/>
<path d="M754.581 330C754.581 350.801 654.199 357.672 630 357.672C605.801 357.672 609.386 350.801 609.386 330C609.386 309.199 605.801 232.867 630 232.867C654.199 232.867 754.581 309.199 754.581 330Z" fill="#D0352B" fill-opacity="0.1" stroke="#D0352B" stroke-width="2"/>
<path d="M630 235.867C631.657 235.867 633 234.524 633 232.867C633 231.21 631.657 229.867 630 229.867C628.343 229.867 627 231.21 627 232.867C627 234.524 628.343 235.867 630 235.867Z" fill="#D0352B" fill-opacity="0.8"/>
<path d="M754.581 333C756.238 333 757.581 331.657 757.581 330C757.581 328.343 756.238 327 754.581 327C752.924 327 751.581 328.343 751.581 330C751.581 331.657 752.924 333 754.581 333Z" fill="#D0352B" fill-opacity="0.8"/>
<path d="M630 360.672C631.657 360.672 633 359.329 633 357.672C633 356.015 631.657 354.672 630 354.672C628.343 354.672 627 356.015 627 357.672C627 359.329 628.343 360.672 630 360.672Z" fill="#D0352B" fill-opacity="0.8"/>
<path d="M609.386 333C611.043 333 612.386 331.657 612.386 330C612.386 328.343 611.043 327 609.386 327C607.729 327 606.386 328.343 606.386 330C606.386 331.657 607.729 333 609.386 333Z" fill="#D0352B" fill-opacity="0.8"/>
<path d="M730.191 330C730.191 353.511 651.489 346.615 630 346.615C608.511 346.615 601.255 353.511 601.255 330C601.255 306.489 608.511 205.551 630 205.551C651.489 205.551 730.191 306.489 730.191 330Z" fill="#ED9F9B" fill-opacity="0.2" stroke="#ED9F9B" stroke-width="2"/>
<path d="M630 208.551C631.657 208.551 633 207.208 633 205.551C633 203.894 631.657 202.551 630 202.551C628.343 202.551 627 203.894 627 205.551C627 207.208 628.343 208.551 630 208.551Z" fill="#ED9F9B" fill-opacity="0.8"/>
<path d="M730.191 333C731.848 333 733.191 331.657 733.191 330C733.191 328.343 731.848 327 730.191 327C728.534 327 727.191 328.343 727.191 330C727.191 331.657 728.534 333 730.191 333Z" fill="#ED9F9B" fill-opacity="0.8"/>
<path d="M630 349.615C631.657 349.615 633 348.272 633 346.615C633 344.959 631.657 343.615 630 343.615C628.343 343.615 627 344.959 627 346.615C627 348.272 628.343 349.615 630 349.615Z" fill="#ED9F9B" fill-opacity="0.8"/>
<path d="M601.255 333C602.912 333 604.255 331.657 604.255 330C604.255 328.343 602.912 327 601.255 327C599.599 327 598.255 328.343 598.255 330C598.255 331.657 599.599 333 601.255 333Z" fill="#ED9F9B" fill-opacity="0.8"/>
<path d="M668.537 330C668.537 356.882 648.118 417.284 630 417.284C611.882 417.284 559.829 356.882 559.829 330C559.829 303.118 611.882 255.993 630 255.993C648.118 255.993 668.537 303.118 668.537 330Z" fill="#549D3F" fill-opacity="0.1" stroke="#549D3F" stroke-width="2"/>
<path d="M630 258.993C631.657 258.993 633 257.65 633 255.993C633 254.336 631.657 252.993 630 252.993C628.343 252.993 627 254.336 627 255.993C627 257.65 628.343 258.993 630 258.993Z" fill="#549D3F" fill-opacity="0.8"/>
<path d="M668.537 333C670.194 333 671.537 331.657 671.537 330C671.537 328.343 670.194 327 668.537 327C666.881 327 665.537 328.343 665.537 330C665.537 331.657 666.881 333 668.537 333Z" fill="#549D3F" fill-opacity="0.8"/>
<path d="M630 420.284C631.657 420.284 633 418.941 633 417.284C633 415.628 631.657 414.284 630 414.284C628.343 414.284 627 415.628 627 417.284C627 418.941 628.343 420.284 630 420.284Z" fill="#549D3F" fill-opacity="0.8"/>
<path d="M559.829 333C561.485 333 562.829 331.657 562.829 330C562.829 328.343 561.485 327 559.829 327C558.172 327 556.829 328.343 556.829 330C556.829 331.657 558.172 333 559.829 333Z" fill="#549D3F" fill-opacity="0.8"/>
<path d="M883.499 330C883.499 332.71 672.29 337.653 630 337.653C587.71 337.653 629.761 332.71 629.761 330C629.761 327.29 587.71 321.391 630 321.391C672.29 321.391 883.499 327.29 883.499 330Z" fill="#BBDD93" fill-opacity="0.2" stroke="#BBDD93" stroke-width="2"/>
<path d="M630 324.391C631.657 324.391 633 323.047 633 321.391C633 319.734 631.657 318.391 630 318.391C628.343 318.391 627 319.734 627 321.391C627 323.047 628.343 324.391 630 324.391Z" fill="#BBDD93" fill-opacity="0.8"/>
<path d="M883.499 333C885.156 333 886.499 331.657 886.499 330C886.499 328.343 885.156 327 883.499 327C881.842 327 880.499 328.343 880.499 330C880.499 331.657 881.842 333 883.499 333Z" fill="#BBDD93" fill-opacity="0.8"/>
<path d="M630 340.653C631.657 340.653 633 339.31 633 337.653C633 335.996 631.657 334.653 630 334.653C628.343 334.653 627 335.996 627 337.653C627 339.31 628.343 340.653 630 340.653Z" fill="#BBDD93" fill-opacity="0.8"/>
<path d="M629.761 333C631.418 333 632.761 331.657 632.761 330C632.761 328.343 631.418 327 629.761 327C628.104 327 626.761 328.343 626.761 330C626.761 331.657 628.104 333 629.761 333Z" fill="#BBDD93" fill-opacity="0.8"/>
<path d="M705.26 330C705.26 349.928 655.072 426.546 630 426.546C604.929 426.546 554.831 349.928 554.831 330C554.831 310.072 604.929 306.975 630 306.975C655.072 306.975 705.26 310.072 705.26 330Z" fill="#644195" fill-opacity="0.1" stroke="#644195" stroke-width="2"/>
<path d="M630 309.975C631.657 309.975 633 308.632 633 306.975C633 305.318 631.657 303.975 630 303.975C628.343 303.975 627 305.318 627 306.975C627 308.632 628.343 309.975 630 309.975Z" fill="#644195" fill-opacity="0.8"/>
<path d="M705.26 333C706.917 333 708.26 331.657 708.26 330C708.26 328.343 706.917 327 705.26 327C703.603 327 702.26 328.343 702.26 330C702.26 331.657 703.603 333 705.26 333Z" fill="#644195" fill-opacity="0.8"/>
<path d="M630 429.546C631.657 429.546 633 428.203 633 426.546C633 424.889 631.657 423.546 630 423.546C628.343 423.546 627 424.889 627 426.546C627 428.203 628.343 429.546 630 429.546Z" fill="#644195" fill-opacity="0.8"/>
<path d="M554.831 333C556.488 333 557.831 331.657 557.831 330C557.831 328.343 556.488 327 554.831 327C553.174 327 551.831 328.343 551.831 330C551.831 331.657 553.174 333 554.831 333Z" fill="#644195" fill-opacity="0.8"/>
<path d="M65 300H50V315H65V300Z" fill="#644195"/>
<path d="M65 320H50V335H65V320Z" fill="#BBDD93"/>
<path d="M65 340H50V355H65V340Z" fill="#549D3F"/>
<path d="M65 360H50V375H65V360Z" fill="#ED9F9B"/>
<path d="M65 380H50V395H65V380Z" fill="#D0352B"/>
<path d="M65 400H50V415H65V400Z" fill="#EF8532"/>
<path d="M65 420H50V435H65V420Z" fill="#3B77AF"/>
<path d="M76.0795 301H75.0227C74.9602 300.696 74.8509 300.429 74.6946 300.199C74.5412 299.969 74.3537 299.776 74.1321 299.619C73.9134 299.46 73.6705 299.341 73.4034 299.261C73.1364 299.182 72.858 299.142 72.5682 299.142C72.0398 299.142 71.5611 299.276 71.1321 299.543C70.706 299.81 70.3665 300.203 70.1136 300.723C69.8636 301.243 69.7386 301.881 69.7386 302.636C69.7386 303.392 69.8636 304.03 70.1136 304.55C70.3665 305.07 70.706 305.463 71.1321 305.73C71.5611 305.997 72.0398 306.131 72.5682 306.131C72.858 306.131 73.1364 306.091 73.4034 306.011C73.6705 305.932 73.9134 305.814 74.1321 305.658C74.3537 305.499 74.5412 305.304 74.6946 305.074C74.8509 304.841 74.9602 304.574 75.0227 304.273H76.0795C76 304.719 75.8551 305.118 75.6449 305.47C75.4347 305.822 75.1733 306.122 74.8608 306.369C74.5483 306.614 74.1974 306.8 73.8082 306.928C73.4219 307.055 73.0085 307.119 72.5682 307.119C71.8239 307.119 71.1619 306.938 70.5824 306.574C70.0028 306.21 69.5469 305.693 69.2145 305.023C68.8821 304.352 68.7159 303.557 68.7159 302.636C68.7159 301.716 68.8821 300.92 69.2145 300.25C69.5469 299.58 70.0028 299.062 70.5824 298.699C71.1619 298.335 71.8239 298.153 72.5682 298.153C73.0085 298.153 73.4219 298.217 73.8082 298.345C74.1974 298.473 74.5483 298.661 74.8608 298.908C75.1733 299.152 75.4347 299.45 75.6449 299.803C75.8551 300.152 76 300.551 76.0795 301ZM85.1509 302.636C85.1509 303.557 84.9847 304.352 84.6523 305.023C84.32 305.693 83.864 306.21 83.2844 306.574C82.7049 306.938 82.043 307.119 81.2987 307.119C80.5543 307.119 79.8924 306.938 79.3129 306.574C78.7333 306.21 78.2773 305.693 77.945 305.023C77.6126 304.352 77.4464 303.557 77.4464 302.636C77.4464 301.716 77.6126 300.92 77.945 300.25C78.2773 299.58 78.7333 299.062 79.3129 298.699C79.8924 298.335 80.5543 298.153 81.2987 298.153C82.043 298.153 82.7049 298.335 83.2844 298.699C83.864 299.062 84.32 299.58 84.6523 300.25C84.9847 300.92 85.1509 301.716 85.1509 302.636ZM84.1282 302.636C84.1282 301.881 84.0018 301.243 83.7489 300.723C83.4989 300.203 83.1594 299.81 82.7305 299.543C82.3043 299.276 81.8271 299.142 81.2987 299.142C80.7702 299.142 80.2915 299.276 79.8626 299.543C79.4364 299.81 79.0969 300.203 78.8441 300.723C78.5941 301.243 78.4691 301.881 78.4691 302.636C78.4691 303.392 78.5941 304.03 78.8441 304.55C79.0969 305.07 79.4364 305.463 79.8626 305.73C80.2915 305.997 80.7702 306.131 81.2987 306.131C81.8271 306.131 82.3043 305.997 82.7305 305.73C83.1594 305.463 83.4989 305.07 83.7489 304.55C84.0018 304.03 84.1282 303.392 84.1282 302.636Z" fill="#644195"/>
<path d="M75.9773 318.273V327H74.9545L70.1989 320.148H70.1136V327H69.0568V318.273H70.0795L74.8523 325.142H74.9375V318.273H75.9773ZM78.092 327V318.273H79.1488V322.159H83.8022V318.273H84.859V327H83.8022V323.097H79.1488V327H78.092ZM89.7702 327.119C89.2077 327.119 88.7063 327.023 88.266 326.83C87.8285 326.636 87.4805 326.368 87.2219 326.024C86.9663 325.678 86.8271 325.276 86.8043 324.818H87.8782C87.9009 325.099 87.9975 325.342 88.168 325.547C88.3384 325.749 88.5614 325.905 88.837 326.016C89.1126 326.126 89.418 326.182 89.7532 326.182C90.1282 326.182 90.4606 326.116 90.7504 325.986C91.0401 325.855 91.2674 325.673 91.4322 325.44C91.5969 325.207 91.6793 324.938 91.6793 324.631C91.6793 324.31 91.5998 324.027 91.4407 323.783C91.2816 323.536 91.0487 323.342 90.7418 323.203C90.435 323.064 90.06 322.994 89.6168 322.994H88.918V322.057H89.6168C89.9634 322.057 90.2674 321.994 90.5288 321.869C90.793 321.744 90.9989 321.568 91.1467 321.341C91.2972 321.114 91.3725 320.847 91.3725 320.54C91.3725 320.244 91.3072 319.987 91.1765 319.768C91.0458 319.55 90.8612 319.379 90.6225 319.257C90.3867 319.135 90.1083 319.074 89.7873 319.074C89.4862 319.074 89.2021 319.129 88.935 319.24C88.6708 319.348 88.4549 319.506 88.2873 319.713C88.1197 319.918 88.0288 320.165 88.0146 320.455H86.9918C87.0089 319.997 87.1467 319.597 87.4052 319.253C87.6637 318.906 88.0018 318.636 88.4194 318.443C88.8398 318.25 89.3015 318.153 89.8043 318.153C90.3441 318.153 90.8072 318.263 91.1935 318.482C91.5799 318.697 91.8768 318.983 92.0842 319.338C92.2915 319.693 92.3952 320.077 92.3952 320.489C92.3952 320.98 92.266 321.399 92.0075 321.746C91.7518 322.092 91.4038 322.332 90.9634 322.466V322.534C91.5146 322.625 91.945 322.859 92.2546 323.237C92.5643 323.612 92.7191 324.077 92.7191 324.631C92.7191 325.105 92.5898 325.531 92.3313 325.909C92.0756 326.284 91.7262 326.58 91.283 326.795C90.8398 327.011 90.3356 327.119 89.7702 327.119Z" fill="#BBDD93"/>
<path d="M75.9773 338.273V347H74.9545L70.1989 340.148H70.1136V347H69.0568V338.273H70.0795L74.8523 345.142H74.9375V338.273H75.9773ZM85.4556 342.636C85.4556 343.557 85.2894 344.352 84.957 345.023C84.6246 345.693 84.1687 346.21 83.5891 346.574C83.0096 346.938 82.3477 347.119 81.6033 347.119C80.859 347.119 80.1971 346.938 79.6175 346.574C79.038 346.21 78.582 345.693 78.2496 345.023C77.9173 344.352 77.7511 343.557 77.7511 342.636C77.7511 341.716 77.9173 340.92 78.2496 340.25C78.582 339.58 79.038 339.062 79.6175 338.699C80.1971 338.335 80.859 338.153 81.6033 338.153C82.3477 338.153 83.0096 338.335 83.5891 338.699C84.1687 339.062 84.6246 339.58 84.957 340.25C85.2894 340.92 85.4556 341.716 85.4556 342.636ZM84.4329 342.636C84.4329 341.881 84.3065 341.243 84.0536 340.723C83.8036 340.203 83.4641 339.81 83.0352 339.543C82.609 339.276 82.1317 339.142 81.6033 339.142C81.0749 339.142 80.5962 339.276 80.1673 339.543C79.7411 339.81 79.4016 340.203 79.1488 340.723C78.8988 341.243 78.7738 341.881 78.7738 342.636C78.7738 343.392 78.8988 344.03 79.1488 344.55C79.4016 345.07 79.7411 345.463 80.1673 345.73C80.5962 345.997 81.0749 346.131 81.6033 346.131C82.1317 346.131 82.609 345.997 83.0352 345.73C83.4641 345.463 83.8036 345.07 84.0536 344.55C84.3065 344.03 84.4329 343.392 84.4329 342.636ZM87.8462 340.455L89.4144 343.131L90.9826 340.455H92.1417L90.0281 343.727L92.1417 347H90.9826L89.4144 344.46L87.8462 347H86.6871L88.7667 343.727L86.6871 340.455H87.8462Z" fill="#549D3F"/>
<path d="M69.0568 367V358.273H72.0057C72.6903 358.273 73.25 358.396 73.6847 358.643C74.1222 358.888 74.446 359.219 74.6562 359.636C74.8665 360.054 74.9716 360.52 74.9716 361.034C74.9716 361.548 74.8665 362.016 74.6562 362.436C74.4489 362.857 74.1278 363.192 73.6932 363.442C73.2585 363.689 72.7017 363.812 72.0227 363.812H69.9091V362.875H71.9886C72.4574 362.875 72.8338 362.794 73.1179 362.632C73.402 362.47 73.608 362.251 73.7358 361.976C73.8665 361.697 73.9318 361.384 73.9318 361.034C73.9318 360.685 73.8665 360.372 73.7358 360.097C73.608 359.821 73.4006 359.605 73.1136 359.449C72.8267 359.29 72.446 359.21 71.9716 359.21H70.1136V367H69.0568ZM76.674 358.273H77.9354L80.9013 365.517H81.0036L83.9695 358.273H85.2308V367H84.2422V360.369H84.157L81.4297 367H80.4751L77.7479 360.369H77.6626V367H76.674V358.273ZM87.1964 367V366.233L90.0771 363.08C90.4151 362.71 90.6935 362.389 90.9123 362.116C91.131 361.841 91.293 361.582 91.3981 361.341C91.506 361.097 91.56 360.841 91.56 360.574C91.56 360.267 91.4862 360.001 91.3384 359.777C91.1935 359.553 90.9947 359.379 90.7418 359.257C90.489 359.135 90.2049 359.074 89.8896 359.074C89.5543 359.074 89.2617 359.143 89.0117 359.283C88.7646 359.419 88.5728 359.611 88.4364 359.858C88.3029 360.105 88.2362 360.395 88.2362 360.727H87.2305C87.2305 360.216 87.3484 359.767 87.5842 359.381C87.82 358.994 88.141 358.693 88.5472 358.477C88.9563 358.261 89.4151 358.153 89.9237 358.153C90.435 358.153 90.8881 358.261 91.283 358.477C91.6779 358.693 91.9876 358.984 92.212 359.351C92.4364 359.717 92.5487 360.125 92.5487 360.574C92.5487 360.895 92.4904 361.209 92.3739 361.516C92.2603 361.82 92.0614 362.159 91.7773 362.534C91.4961 362.906 91.1055 363.361 90.6055 363.898L88.6452 365.994V366.062H92.7021V367H87.1964ZM95.212 367.068C95.0018 367.068 94.8214 366.993 94.6708 366.842C94.5202 366.692 94.445 366.511 94.445 366.301C94.445 366.091 94.5202 365.911 94.6708 365.76C94.8214 365.609 95.0018 365.534 95.212 365.534C95.4222 365.534 95.6026 365.609 95.7532 365.76C95.9038 365.911 95.979 366.091 95.979 366.301C95.979 366.44 95.9435 366.568 95.8725 366.685C95.8043 366.801 95.712 366.895 95.5955 366.966C95.4819 367.034 95.354 367.068 95.212 367.068ZM100.318 367.119C99.8182 367.119 99.3679 367.02 98.9673 366.821C98.5668 366.622 98.2457 366.349 98.0043 366.003C97.7628 365.656 97.6307 365.261 97.608 364.818H98.6307C98.6705 365.213 98.8494 365.54 99.1676 365.798C99.4886 366.054 99.8722 366.182 100.318 366.182C100.676 366.182 100.994 366.098 101.273 365.93C101.554 365.763 101.774 365.533 101.933 365.24C102.095 364.945 102.176 364.611 102.176 364.239C102.176 363.858 102.092 363.518 101.925 363.22C101.76 362.919 101.533 362.682 101.243 362.509C100.953 362.335 100.622 362.247 100.25 362.244C99.983 362.241 99.7088 362.283 99.4276 362.368C99.1463 362.45 98.9148 362.557 98.733 362.688L97.7443 362.568L98.2727 358.273H102.807V359.21H99.1591L98.8523 361.784H98.9034C99.0824 361.642 99.3068 361.524 99.5767 361.43C99.8466 361.337 100.128 361.29 100.42 361.29C100.955 361.29 101.43 361.418 101.848 361.673C102.268 361.926 102.598 362.273 102.837 362.713C103.078 363.153 103.199 363.656 103.199 364.222C103.199 364.778 103.074 365.276 102.824 365.713C102.577 366.148 102.236 366.491 101.801 366.744C101.366 366.994 100.872 367.119 100.318 367.119Z" fill="#ED9F9B"/>
<path d="M69.0568 387V378.273H72.0057C72.6903 378.273 73.25 378.396 73.6847 378.643C74.1222 378.888 74.446 379.219 74.6562 379.636C74.8665 380.054 74.9716 380.52 74.9716 381.034C74.9716 381.548 74.8665 382.016 74.6562 382.436C74.4489 382.857 74.1278 383.192 73.6932 383.442C73.2585 383.689 72.7017 383.812 72.0227 383.812H69.9091V382.875H71.9886C72.4574 382.875 72.8338 382.794 73.1179 382.632C73.402 382.47 73.608 382.251 73.7358 381.976C73.8665 381.697 73.9318 381.384 73.9318 381.034C73.9318 380.685 73.8665 380.372 73.7358 380.097C73.608 379.821 73.4006 379.605 73.1136 379.449C72.8267 379.29 72.446 379.21 71.9716 379.21H70.1136V387H69.0568ZM76.674 378.273H77.9354L80.9013 385.517H81.0036L83.9695 378.273H85.2308V387H84.2422V380.369H84.157L81.4297 387H80.4751L77.7479 380.369H77.6626V387H76.674V378.273ZM90.2646 378.273V387H89.2077V379.381H89.1566L87.0259 380.795V379.722L89.2077 378.273H90.2646ZM95.6211 387.119C94.979 387.119 94.4322 386.945 93.9805 386.595C93.5288 386.243 93.1836 385.733 92.945 385.065C92.7063 384.395 92.587 383.585 92.587 382.636C92.587 381.693 92.7063 380.888 92.945 380.22C93.1864 379.55 93.533 379.038 93.9847 378.686C94.4393 378.331 94.9847 378.153 95.6211 378.153C96.2575 378.153 96.8015 378.331 97.2532 378.686C97.7077 379.038 98.0543 379.55 98.293 380.22C98.5344 380.888 98.6552 381.693 98.6552 382.636C98.6552 383.585 98.5359 384.395 98.2972 385.065C98.0586 385.733 97.7134 386.243 97.2617 386.595C96.81 386.945 96.2631 387.119 95.6211 387.119ZM95.6211 386.182C96.2575 386.182 96.7518 385.875 97.104 385.261C97.4563 384.648 97.6325 383.773 97.6325 382.636C97.6325 381.881 97.5515 381.237 97.3896 380.706C97.2305 380.175 97.0004 379.77 96.6992 379.491C96.4009 379.213 96.0415 379.074 95.6211 379.074C94.9904 379.074 94.4975 379.385 94.1424 380.007C93.7873 380.626 93.6097 381.503 93.6097 382.636C93.6097 383.392 93.6893 384.034 93.8484 384.562C94.0075 385.091 94.2362 385.493 94.5344 385.768C94.8356 386.044 95.1978 386.182 95.6211 386.182Z" fill="#D0352B"/>
<path d="M73.8295 400.455C73.7784 400.023 73.571 399.688 73.2074 399.449C72.8438 399.21 72.3977 399.091 71.8693 399.091C71.483 399.091 71.1449 399.153 70.8551 399.278C70.5682 399.403 70.3438 399.575 70.1818 399.794C70.0227 400.013 69.9432 400.261 69.9432 400.54C69.9432 400.773 69.9986 400.973 70.1094 401.141C70.223 401.305 70.3679 401.443 70.544 401.554C70.7202 401.662 70.9048 401.751 71.098 401.822C71.2912 401.891 71.4688 401.946 71.6307 401.989L72.517 402.227C72.7443 402.287 72.9972 402.369 73.2756 402.474C73.5568 402.58 73.8253 402.723 74.081 402.905C74.3395 403.084 74.5526 403.314 74.7202 403.595C74.8878 403.876 74.9716 404.222 74.9716 404.631C74.9716 405.102 74.848 405.528 74.6009 405.909C74.3565 406.29 73.9986 406.592 73.527 406.817C73.0582 407.041 72.4886 407.153 71.8182 407.153C71.1932 407.153 70.652 407.053 70.1946 406.851C69.7401 406.649 69.3821 406.368 69.1207 406.007C68.8622 405.646 68.7159 405.227 68.6818 404.75H69.7727C69.8011 405.08 69.9119 405.352 70.1051 405.568C70.3011 405.781 70.5483 405.94 70.8466 406.045C71.1477 406.148 71.4716 406.199 71.8182 406.199C72.2216 406.199 72.5838 406.134 72.9048 406.003C73.2259 405.869 73.4801 405.685 73.6676 405.449C73.8551 405.21 73.9489 404.932 73.9489 404.614C73.9489 404.324 73.8679 404.088 73.706 403.906C73.544 403.724 73.331 403.577 73.0668 403.463C72.8026 403.349 72.517 403.25 72.2102 403.165L71.1364 402.858C70.4545 402.662 69.9148 402.382 69.517 402.018C69.1193 401.655 68.9205 401.179 68.9205 400.591C68.9205 400.102 69.0526 399.676 69.3168 399.312C69.5838 398.946 69.9418 398.662 70.3906 398.46C70.8423 398.256 71.3466 398.153 71.9034 398.153C72.4659 398.153 72.9659 398.254 73.4034 398.456C73.8409 398.655 74.1875 398.928 74.4432 399.274C74.7017 399.621 74.8381 400.014 74.8523 400.455H73.8295ZM84.0728 402.636C84.0728 403.557 83.9066 404.352 83.5742 405.023C83.2418 405.693 82.7859 406.21 82.2063 406.574C81.6268 406.938 80.9648 407.119 80.2205 407.119C79.4762 407.119 78.8143 406.938 78.2347 406.574C77.6552 406.21 77.1992 405.693 76.8668 405.023C76.5344 404.352 76.3683 403.557 76.3683 402.636C76.3683 401.716 76.5344 400.92 76.8668 400.25C77.1992 399.58 77.6552 399.062 78.2347 398.699C78.8143 398.335 79.4762 398.153 80.2205 398.153C80.9648 398.153 81.6268 398.335 82.2063 398.699C82.7859 399.062 83.2418 399.58 83.5742 400.25C83.9066 400.92 84.0728 401.716 84.0728 402.636ZM83.0501 402.636C83.0501 401.881 82.9237 401.243 82.6708 400.723C82.4208 400.203 82.0813 399.81 81.6523 399.543C81.2262 399.276 80.7489 399.142 80.2205 399.142C79.6921 399.142 79.2134 399.276 78.7844 399.543C78.3583 399.81 78.0188 400.203 77.766 400.723C77.516 401.243 77.391 401.881 77.391 402.636C77.391 403.392 77.516 404.03 77.766 404.55C78.0188 405.07 78.3583 405.463 78.7844 405.73C79.2134 405.997 79.6921 406.131 80.2205 406.131C80.7489 406.131 81.2262 405.997 81.6523 405.73C82.0813 405.463 82.4208 405.07 82.6708 404.55C82.9237 404.03 83.0501 403.392 83.0501 402.636ZM85.6964 407V406.233L88.5771 403.08C88.9151 402.71 89.1935 402.389 89.4123 402.116C89.631 401.841 89.793 401.582 89.8981 401.341C90.006 401.097 90.06 400.841 90.06 400.574C90.06 400.267 89.9862 400.001 89.8384 399.777C89.6935 399.553 89.4947 399.379 89.2418 399.257C88.989 399.135 88.7049 399.074 88.3896 399.074C88.0543 399.074 87.7617 399.143 87.5117 399.283C87.2646 399.419 87.0728 399.611 86.9364 399.858C86.8029 400.105 86.7362 400.395 86.7362 400.727H85.7305C85.7305 400.216 85.8484 399.767 86.0842 399.381C86.32 398.994 86.641 398.693 87.0472 398.477C87.4563 398.261 87.9151 398.153 88.4237 398.153C88.935 398.153 89.3881 398.261 89.783 398.477C90.1779 398.693 90.4876 398.984 90.712 399.351C90.9364 399.717 91.0487 400.125 91.0487 400.574C91.0487 400.895 90.9904 401.209 90.8739 401.516C90.7603 401.82 90.5614 402.159 90.2773 402.534C89.9961 402.906 89.6055 403.361 89.1055 403.898L87.1452 405.994V406.062H91.2021V407H85.6964Z" fill="#EF8532"/>
<path d="M69.4148 418.273L72.0057 425.619H72.108L74.6989 418.273H75.8068L72.6023 427H71.5114L68.3068 418.273H69.4148ZM84.1197 422.636C84.1197 423.557 83.9535 424.352 83.6211 425.023C83.2887 425.693 82.8327 426.21 82.2532 426.574C81.6737 426.938 81.0117 427.119 80.2674 427.119C79.5231 427.119 78.8612 426.938 78.2816 426.574C77.7021 426.21 77.2461 425.693 76.9137 425.023C76.5813 424.352 76.4151 423.557 76.4151 422.636C76.4151 421.716 76.5813 420.92 76.9137 420.25C77.2461 419.58 77.7021 419.062 78.2816 418.699C78.8612 418.335 79.5231 418.153 80.2674 418.153C81.0117 418.153 81.6737 418.335 82.2532 418.699C82.8327 419.062 83.2887 419.58 83.6211 420.25C83.9535 420.92 84.1197 421.716 84.1197 422.636ZM83.0969 422.636C83.0969 421.881 82.9705 421.243 82.7177 420.723C82.4677 420.203 82.1282 419.81 81.6992 419.543C81.2731 419.276 80.7958 419.142 80.2674 419.142C79.739 419.142 79.2603 419.276 78.8313 419.543C78.4052 419.81 78.0657 420.203 77.8129 420.723C77.5629 421.243 77.4379 421.881 77.4379 422.636C77.4379 423.392 77.5629 424.03 77.8129 424.55C78.0657 425.07 78.4052 425.463 78.8313 425.73C79.2603 425.997 79.739 426.131 80.2674 426.131C80.7958 426.131 81.2731 425.997 81.6992 425.73C82.1282 425.463 82.4677 425.07 82.7177 424.55C82.9705 424.03 83.0969 423.392 83.0969 422.636ZM92.9194 421H91.8626C91.8001 420.696 91.6907 420.429 91.5344 420.199C91.381 419.969 91.1935 419.776 90.9719 419.619C90.7532 419.46 90.5103 419.341 90.2433 419.261C89.9762 419.182 89.6978 419.142 89.408 419.142C88.8796 419.142 88.4009 419.276 87.9719 419.543C87.5458 419.81 87.2063 420.203 86.9535 420.723C86.7035 421.243 86.5785 421.881 86.5785 422.636C86.5785 423.392 86.7035 424.03 86.9535 424.55C87.2063 425.07 87.5458 425.463 87.9719 425.73C88.4009 425.997 88.8796 426.131 89.408 426.131C89.6978 426.131 89.9762 426.091 90.2433 426.011C90.5103 425.932 90.7532 425.814 90.9719 425.658C91.1935 425.499 91.381 425.304 91.5344 425.074C91.6907 424.841 91.8001 424.574 91.8626 424.273H92.9194C92.8398 424.719 92.695 425.118 92.4847 425.47C92.2745 425.822 92.0131 426.122 91.7006 426.369C91.3881 426.614 91.0373 426.8 90.6481 426.928C90.2617 427.055 89.8484 427.119 89.408 427.119C88.6637 427.119 88.0018 426.938 87.4222 426.574C86.8427 426.21 86.3867 425.693 86.0543 425.023C85.7219 424.352 85.5558 423.557 85.5558 422.636C85.5558 421.716 85.7219 420.92 86.0543 420.25C86.3867 419.58 86.8427 419.062 87.4222 418.699C88.0018 418.335 88.6637 418.153 89.408 418.153C89.8484 418.153 90.2617 418.217 90.6481 418.345C91.0373 418.473 91.3881 418.661 91.7006 418.908C92.0131 419.152 92.2745 419.45 92.4847 419.803C92.695 420.152 92.8398 420.551 92.9194 421Z" fill="#3B77AF"/>
</svg>
