<svg viewBox="0,0,1200,660" width="1200" height="660" xmlns="http://www.w3.org/2000/svg" xmlns:xlink="http://www.w3.org/1999/xlink"><g width="1140" height="540" transform="translate(630, 330)"><g class="axisWrapper"><circle class="gridCircle" r="270" style="fill: rgb(205, 205, 205); stroke: rgb(205, 205, 205); fill-opacity: 0.1;"/><circle class="gridCircle" r="135" style="fill: rgb(205, 205, 205); stroke: rgb(205, 205, 205); fill-opacity: 0.1;"/><g class="axis"><line x1="0" y1="0" x2="1.8186004967338195e-14" y2="-297" class="line" style="stroke: white; stroke-width: 2px;"/><text class="legend" text-anchor="middle" dy="0.35em" x="1.8516659603107984e-14" y="-292.40000000000003" style="font: 11px sans-serif;">Stationary Fuel Combustion</text></g><g class="axis"><line x1="0" y1="0" x2="297" y2="0" class="line" style="stroke: white; stroke-width: 2px;"/><text class="legend" text-anchor="middle" dy="0.35em" x="302.40000000000003" y="10" style="font: 11px sans-serif;">Industrial and Other Processes</text></g><g class="axis"><line x1="0" y1="0" x2="1.8186004967338195e-14" y2="297" class="line" style="stroke: white; stroke-width: 2px;"/><text class="legend" text-anchor="middle" dy="0.35em" x="1.8516659603107984e-14" y="312.40000000000003" style="font: 11px sans-serif;">Highway Vehicles</text></g><g class="axis"><line x1="0" y1="0" x2="-297" y2="3.637200993467639e-14" class="line" style="stroke: white; stroke-width: 2px;"/><text class="legend" text-anchor="middle" dy="0.35em" x="-302.40000000000003" y="10.000000000000037" style="font: 11px sans-serif;">Non-Road Mobile</text></g></g><g><g data-name="CO" fill="#1f77b4"><path d="M75.259922796,-4.608341177809916e-15C75.259922796,19.928463538499994,25.071536461500006,96.545900808,1.1823462839531507e-14,96.545900808C-25.071536461499985,96.545900808,-75.169295973,19.92846353850001,-75.169295973,1.380837565612417e-14C-75.169295973,-19.928463538499983,-25.071536461499996,-23.024880422999992,0,-23.024880422999995C25.071536461499996,-23.024880423,75.259922796,-19.9284635385,75.259922796,-4.608341177809916e-15" fill="#1f77b4" fill-opacity="0.1" stroke="#1f77b4" stroke-width="2"/><circle r="3" cx="1.409867305538875e-15" cy="-23.024880422999995" style="fill-opacity: 0.8;"/><circle r="3" cx="75.259922796" cy="0" style="fill-opacity: 0.8;"/><circle r="3" cx="5.911731419765753e-15" cy="96.545900808" style="fill-opacity: 0.8;"/><circle r="3" cx="-75.169295973" cy="9.205583770749449e-15" style="fill-opacity: 0.8;"/></g><g data-name="NH3" fill="#ff7f0e"><path d="M253.49867138700003,-1.5522316825109817e-14C253.49867138700003,2.7103631530499848,42.28963684605,7.652790079199997,9.3719648750389e-16,7.6527900792C-42.28963684605,7.6527900792000025,-0.2391496892999998,2.7103631530500003,-0.23914968929999997,4.3931085227749346e-17C-0.23914968930000013,-2.7103631530500003,-42.28963684605,-8.6093888391,0,-8.609388839100001C42.28963684605,-8.609388839100003,253.49867138700003,-2.710363153050016,253.49867138700003,-1.5522316825109817e-14" fill="#ff7f0e" fill-opacity="0.1" stroke="#ff7f0e" stroke-width="2"/><circle r="3" cx="5.271730242209382e-16" cy="-8.609388839100001" style="fill-opacity: 0.8;"/><circle r="3" cx="253.49867138700003" cy="0" style="fill-opacity: 0.8;"/><circle r="3" cx="4.68598243751945e-16" cy="7.6527900792" style="fill-opacity: 0.8;"/><circle r="3" cx="-0.23914968929999997" cy="2.9287390151832896e-17" style="fill-opacity: 0.8;"/></g><g data-name="NOx" fill="#2ca02c"><path d="M38.537421624,-2.3597365019611794e-15C38.537421624,26.88185736899999,18.11814263100001,87.284482767,1.0689266243583886e-14,87.284482767C-18.118142630999987,87.284482767,-70.171434162,26.88185736900001,-70.171434162,1.2890283335710878e-14C-70.171434162,-26.88185736899998,-18.118142630999998,-74.006661447,0,-74.006661447C18.118142630999998,-74.006661447,38.537421624,-26.881857369,38.537421624,-2.3597365019611794e-15" fill="#2ca02c" fill-opacity="0.1" stroke="#2ca02c" stroke-width="2"/><circle r="3" cx="4.531601052832519e-15" cy="-74.006661447" style="fill-opacity: 0.8;"/><circle r="3" cx="38.537421624" cy="0" style="fill-opacity: 0.8;"/><circle r="3" cx="5.344633121791943e-15" cy="87.284482767" style="fill-opacity: 0.8;"/><circle r="3" cx="-70.171434162" cy="8.593522223807252e-15" style="fill-opacity: 0.8;"/></g><g data-name="PM2.5" fill="#d62728"><path d="M100.19076923699998,-6.134915242510157e-15C100.19076923699998,23.51076922979999,21.489230771999996,16.615384615799996,2.0347977586341645e-15,16.6153846158C-21.48923077199999,16.615384615800004,-28.744615394999997,23.5107692298,-28.744615394999997,5.280300185431271e-15C-28.744615394999997,-23.510769229799994,-21.489230771999992,-124.449230763,0,-124.449230763C21.489230771999992,-124.449230763,100.19076923699998,-23.510769229800005,100.19076923699998,-6.134915242510157e-15" fill="#d62728" fill-opacity="0.1" stroke="#d62728" stroke-width="2"/><circle r="3" cx="7.620317605512913e-15" cy="-124.449230763" style="fill-opacity: 0.8;"/><circle r="3" cx="100.19076923699998" cy="0" style="fill-opacity: 0.8;"/><circle r="3" cx="1.0173988793170823e-15" cy="16.6153846158" style="fill-opacity: 0.8;"/><circle r="3" cx="-28.744615394999997" cy="3.5202001236208478e-15" style="fill-opacity: 0.8;"/></g><g data-name="PM10" fill="#9467bd"><path d="M124.580912868,-7.628380808932576e-15C124.580912868,20.800829875499993,24.199170125400006,27.672199181999996,3.3888670153604305e-15,27.672199182C-24.1991701254,27.672199182000004,-20.6141078844,20.800829875500003,-20.6141078844,3.786750185686301e-15C-20.6141078844,-20.800829875499996,-24.199170125400002,-97.132780071,0,-97.132780071C24.199170125400002,-97.132780071,124.580912868,-20.800829875500007,124.580912868,-7.628380808932576e-15" fill="#9467bd" fill-opacity="0.1" stroke="#9467bd" stroke-width="2"/><circle r="3" cx="5.947667410311698e-15" cy="-97.132780071" style="fill-opacity: 0.8;"/><circle r="3" cx="124.580912868" cy="0" style="fill-opacity: 0.8;"/><circle r="3" cx="1.6944335076802152e-15" cy="27.672199182" style="fill-opacity: 0.8;"/><circle r="3" cx="-20.6141078844" cy="2.5245001237908674e-15" style="fill-opacity: 0.8;"/></g><g data-name="SO2" fill="#8c564b"><path d="M62.027027019,-3.798060004972238e-15C62.027027019,33.4966216203,11.503378376999999,2.736486487799999,3.351229418194252e-16,2.7364864877999997C-11.503378376999999,2.7364864878000006,-6.993243242999999,33.496621620300004,-6.993243242999999,1.2846379429798208e-15C-6.993243242999999,-33.496621620300004,-11.503378376999999,-198.24324323400003,0,-198.24324323400003C11.503378376999999,-198.24324323400003,62.027027019,-33.49662162030001,62.027027019,-3.798060004972238e-15" fill="#8c564b" fill-opacity="0.1" stroke="#8c564b" stroke-width="2"/><circle r="3" cx="1.2138897663955417e-14" cy="-198.24324323400003" style="fill-opacity: 0.8;"/><circle r="3" cx="62.027027019" cy="0" style="fill-opacity: 0.8;"/><circle r="3" cx="1.675614709097126e-16" cy="2.7364864877999997" style="fill-opacity: 0.8;"/><circle r="3" cx="-6.993243242999999" cy="8.564252953198805e-16" style="fill-opacity: 0.8;"/></g><g data-name="VOC" fill="#e377c2"><path d="M195.04996667999998,-1.1943365868422993e-14C195.04996667999998,7.0886075935499875,37.9113924015,32.158560951,3.9382878733827215e-15,32.158560951C-37.91139240149999,32.158560951,-32.418387729,7.088607593550005,-32.418387729,5.955161214875653e-15C-32.418387729,-7.088607593549993,-37.911392401499995,-10.373084610299996,0,-10.3730846103C37.911392401499995,-10.373084610300003,195.04996667999998,-7.088607593550011,195.04996667999998,-1.1943365868422993e-14" fill="#e377c2" fill-opacity="0.1" stroke="#e377c2" stroke-width="2"/><circle r="3" cx="6.351682432644282e-16" cy="-10.3730846103" style="fill-opacity: 0.8;"/><circle r="3" cx="195.04996667999998" cy="0" style="fill-opacity: 0.8;"/><circle r="3" cx="1.9691439366913607e-15" cy="32.158560951" style="fill-opacity: 0.8;"/><circle r="3" cx="-32.418387729" cy="3.970107476583768e-15" style="fill-opacity: 0.8;"/></g></g></g><rect x="50" y="300" width="15" height="15" style="fill: rgb(31, 119, 180);"/><rect x="50" y="320" width="15" height="15" style="fill: rgb(255, 127, 14);"/><rect x="50" y="340" width="15" height="15" style="fill: rgb(44, 160, 44);"/><rect x="50" y="360" width="15" height="15" style="fill: rgb(214, 39, 40);"/><rect x="50" y="380" width="15" height="15" style="fill: rgb(148, 103, 189);"/><rect x="50" y="400" width="15" height="15" style="fill: rgb(140, 86, 75);"/><rect x="50" y="420" width="15" height="15" style="fill: rgb(227, 119, 194);"/><text x="68" y="307" text-anchor="left" style="font: 15px sans-serif; fill: rgb(31, 119, 180); alignment-baseline: middle;">CO</text><text x="68" y="327" text-anchor="left" style="font: 15px sans-serif; fill: rgb(255, 127, 14); alignment-baseline: middle;">NH3</text><text x="68" y="347" text-anchor="left" style="font: 15px sans-serif; fill: rgb(44, 160, 44); alignment-baseline: middle;">NOx</text><text x="68" y="367" text-anchor="left" style="font: 15px sans-serif; fill: rgb(214, 39, 40); alignment-baseline: middle;">PM2.5</text><text x="68" y="387" text-anchor="left" style="font: 15px sans-serif; fill: rgb(148, 103, 189); alignment-baseline: middle;">PM10</text><text x="68" y="407" text-anchor="left" style="font: 15px sans-serif; fill: rgb(140, 86, 75); alignment-baseline: middle;">SO2</text><text x="68" y="427" text-anchor="left" style="font: 15px sans-serif; fill: rgb(227, 119, 194); alignment-baseline: middle;">VOC</text></svg>